<svg width="26" height="26" viewBox="0 0 26 26" fill="none" xmlns="http://www.w3.org/2000/svg">
<g clip-path="url(#clip0)">
<path d="M16.4343 11.9159V12.2213C16.4343 12.4236 16.5982 12.5875 16.8005 12.5875C17.0028 12.5875 17.1667 12.4236 17.1667 12.2213V11.9159C17.1667 11.7136 17.0028 11.5497 16.8005 11.5497C16.5982 11.5497 16.4343 11.7137 16.4343 11.9159Z" fill="#6E4990"/>
<path d="M21.105 11.9159V12.2213C21.105 12.4236 21.2689 12.5875 21.4712 12.5875C21.6735 12.5875 21.8374 12.4236 21.8374 12.2213V11.9159C21.8374 11.7136 21.6735 11.5497 21.4712 11.5497C21.2689 11.5497 21.105 11.7137 21.105 11.9159Z" fill="#6E4990"/>
<path d="M20.5067 14.074C19.5841 14.586 18.6873 14.586 17.7649 14.074C17.588 13.9759 17.3652 14.0397 17.267 14.2165C17.1689 14.3934 17.2327 14.6163 17.4095 14.7144C17.9823 15.0323 18.5591 15.1912 19.1358 15.1912C19.7126 15.1912 20.2893 15.0323 20.8621 14.7144C21.0389 14.6163 21.1027 14.3934 21.0046 14.2165C20.9064 14.0397 20.6836 13.976 20.5067 14.074Z" fill="#6E4990"/>
<path d="M23.0168 3.50445C22.4952 3.50445 21.9848 3.68545 21.5796 4.01417L21.579 4.0147L21.4325 3.9128C21.0483 3.64561 20.5979 3.50445 20.1301 3.50445H15.2548C14.487 3.50445 13.768 3.79654 13.223 4.3167C12.1792 3.12447 10.6468 2.37022 8.94136 2.37022H7.45161L7.80679 1.95298C7.93789 1.79898 7.91934 1.56783 7.76533 1.43677C7.61133 1.30572 7.38022 1.32417 7.24907 1.47828L6.66958 2.15899L6.33511 1.73541C6.20977 1.57662 5.97949 1.54961 5.82075 1.67496C5.66201 1.8003 5.63496 2.03057 5.7603 2.18926L5.93936 2.41602C4.79507 2.56133 3.71899 3.05074 2.85264 3.83072C2.70229 3.96602 2.69019 4.19761 2.82549 4.34795C2.96079 4.4982 3.19238 4.51036 3.34268 4.3751C4.25405 3.55455 5.43179 3.10264 6.65894 3.10264H8.94136C11.6755 3.10264 13.8998 5.32701 13.8998 8.06114V13.7671C13.8998 13.8806 13.8075 13.9729 13.694 13.9729H13.1338C13.3138 13.4237 13.4116 12.8376 13.4116 12.229V9.05616C13.4116 8.7855 13.1996 8.56128 12.9291 8.54571C11.5344 8.465 10.4426 8.19483 9.64717 7.13882C9.49189 6.93257 9.19941 6.88121 8.98125 7.02227C7.35127 8.07549 5.41167 8.54747 2.69233 8.5525C2.4146 8.55303 2.18872 8.77916 2.18872 9.0565V12.229C2.18872 12.8376 2.28647 13.4237 2.4665 13.973H1.90625C1.79277 13.973 1.70044 13.8806 1.70044 13.7671V8.06114C1.70044 7.12403 1.96333 6.21138 2.46069 5.42198C2.56851 5.25084 2.51719 5.02471 2.34604 4.9169C2.1749 4.80904 1.94878 4.8605 1.84097 5.03155C1.26987 5.93799 0.968018 6.98565 0.968018 8.06114V13.7671C0.968018 14.2844 1.38892 14.7053 1.90625 14.7053H2.76562C3.05459 15.2904 3.44243 15.8182 3.90742 16.2666H3.53076C3.06787 16.2666 2.69126 16.6432 2.69126 17.1062V19.2344C2.69126 19.44 2.76577 19.6283 2.88882 19.7744C2.86909 19.9164 2.85898 20.0605 2.85898 20.2044V23.8294C2.85898 24.2231 3.17925 24.5433 3.5729 24.5433H12.0273C12.4209 24.5433 12.7412 24.2231 12.7412 23.8294C12.7393 20.0142 12.7457 20.2046 12.7362 20.0328H14.0375C14.0902 20.0328 14.1257 20.0573 14.1462 20.0778C14.1776 20.1093 14.1949 20.1521 14.1948 20.1989V20.8521C14.1948 21.0544 14.3587 21.2183 14.561 21.2183C14.7633 21.2183 14.9272 21.0544 14.9272 20.8521V20.1996C14.9277 19.9576 14.8344 19.7307 14.6646 19.5605C14.4972 19.3927 14.2745 19.3004 14.0375 19.3004H12.6062C12.4302 18.7247 12.0903 18.2201 11.6415 17.8404H17.6817V18.1904C17.6817 18.9917 18.3336 19.6436 19.1349 19.6436C19.9362 19.6436 20.5881 18.9917 20.5881 18.1904V17.8404H20.9806C22.2841 17.8404 23.3446 18.9009 23.3446 20.2044V23.8109H14.9272V22.3163C14.9272 22.114 14.7633 21.9501 14.561 21.9501C14.3587 21.9501 14.1948 22.114 14.1948 22.3163V23.8294C14.1948 24.2231 14.515 24.5434 14.9087 24.5434H23.3631C23.7567 24.5434 24.077 24.2231 24.077 23.8295V20.2044C24.077 18.7574 23.0791 17.5394 21.7354 17.2015C22.3458 16.8823 22.8992 16.4501 23.3629 15.9194C23.496 15.7671 23.4804 15.5357 23.3281 15.4026C23.1759 15.2696 22.9445 15.2852 22.8113 15.4375C21.8838 16.4992 20.5441 17.1081 19.1359 17.1081C17.1614 17.1081 15.3399 15.8905 14.5805 14.0719C14.6135 13.9762 14.6323 13.8739 14.6323 13.7672V9.27598C17.0968 9.20796 18.9385 8.73213 20.5341 7.75113C21.491 8.89532 22.7593 9.17237 24.0149 9.26343V12.2289C24.0149 12.9513 23.8605 13.6471 23.556 14.2969C23.4702 14.48 23.549 14.6981 23.7322 14.7839C23.9145 14.8693 24.133 14.7917 24.2192 14.6077C24.3742 14.2771 24.4952 13.9362 24.5822 13.587H24.8981C25.4881 13.587 25.968 13.107 25.968 12.517V6.45557C25.968 4.82833 24.6441 3.50445 23.0168 3.50445ZM2.92109 12.229V9.2834C5.57534 9.25318 7.52959 8.77642 9.19834 7.75108C10.1552 8.89527 11.4235 9.17237 12.6791 9.26343V12.229C12.6791 14.9192 10.4904 17.108 7.80015 17.108C5.10981 17.108 2.92109 14.9192 2.92109 12.229ZM7.07842 17.7941C7.31475 17.8246 7.55566 17.8404 7.80015 17.8404C8.04399 17.8404 8.28418 17.8247 8.51992 17.7944V18.1904C8.51992 18.5878 8.19658 18.9111 7.79917 18.9111C7.40176 18.9111 7.07842 18.5878 7.07842 18.1904V17.7941ZM3.42368 17.1062C3.42368 17.0471 3.47173 16.999 3.53076 16.999H4.72783C4.78687 16.999 4.83496 17.0471 4.83496 17.1062V19.2344C4.83496 19.2935 4.78691 19.3416 4.72783 19.3416H3.53076C3.47173 19.3416 3.42368 19.2935 3.42368 19.2344V17.1062ZM12.0088 20.2044V23.8109H3.59146C3.59312 19.9668 3.58784 20.2124 3.59541 20.074H4.72788C5.19082 20.074 5.56743 19.6974 5.56743 19.2344V17.8734C5.86982 17.8235 6.02754 17.8462 6.346 17.8404V18.1904C6.346 18.9917 6.9979 19.6436 7.79917 19.6436C8.60044 19.6436 9.25234 18.9917 9.25234 18.1904V17.8404H9.64487C10.9483 17.8404 12.0088 18.9009 12.0088 20.2044ZM19.1359 17.8404C19.3781 17.8404 19.6184 17.8244 19.8557 17.7937V18.1904C19.8557 18.5878 19.5323 18.9111 19.1349 18.9111C18.7375 18.9111 18.4141 18.5878 18.4141 18.1904V17.7921C18.6519 17.8234 18.8928 17.8404 19.1359 17.8404ZM16.3688 17.108H10.5694C11.5437 16.5528 12.3363 15.7143 12.8346 14.7053H13.694C13.8139 14.7053 13.9282 14.6819 14.0337 14.6407C14.5447 15.6917 15.3718 16.5469 16.3688 17.108ZM25.2356 12.517C25.2356 12.7031 25.0842 12.8545 24.8981 12.8545H24.7131C24.7358 12.6482 24.7474 12.4396 24.7474 12.2289V9.05611C24.7474 8.78545 24.5354 8.56124 24.2648 8.54566C22.8702 8.46495 21.7784 8.19478 20.9829 7.13877C20.8276 6.93248 20.535 6.8814 20.317 7.02222C18.8028 8.00064 17.0383 8.47432 14.6322 8.54327V8.06114C14.6322 6.89293 14.2782 5.80591 13.6721 4.90142C14.0878 4.47632 14.6517 4.23687 15.2549 4.23687H20.1301C20.4478 4.23687 20.7535 4.33277 21.0143 4.51412L21.3102 4.71993C21.4885 4.84376 21.7308 4.83482 21.8994 4.698L22.0411 4.58296C22.3162 4.35982 22.6626 4.23692 23.0168 4.23692C24.2402 4.23692 25.2355 5.23223 25.2355 6.45562V12.517H25.2356Z" fill="#6E4990"/>
<path d="M5.46484 12.5875C5.66709 12.5875 5.83105 12.4236 5.83105 12.2213V11.9159C5.83105 11.7136 5.66709 11.5497 5.46484 11.5497C5.2626 11.5497 5.09863 11.7136 5.09863 11.9159V12.2213C5.09863 12.4236 5.2626 12.5875 5.46484 12.5875Z" fill="#6E4990"/>
<path d="M10.1355 12.5875C10.3377 12.5875 10.5017 12.4236 10.5017 12.2213V11.9159C10.5017 11.7136 10.3377 11.5497 10.1355 11.5497C9.93325 11.5497 9.76929 11.7136 9.76929 11.9159V12.2213C9.76929 12.4236 9.93325 12.5875 10.1355 12.5875Z" fill="#6E4990"/>
<path d="M6.07381 14.7144C6.64657 15.0323 7.22333 15.1913 7.80013 15.1913C8.37689 15.1913 8.9537 15.0323 9.5264 14.7144C9.70326 14.6163 9.76703 14.3934 9.66888 14.2166C9.57069 14.0397 9.34779 13.9759 9.17098 14.0741C8.24852 14.586 7.35165 14.586 6.42923 14.0741C6.25238 13.976 6.02948 14.0397 5.93133 14.2166C5.83319 14.3934 5.89696 14.6163 6.07381 14.7144Z" fill="#6E4990"/>
</g>
<defs>
<clipPath id="clip0">
<rect width="25" height="25" fill="white" transform="translate(0.968018 0.446381)"/>
</clipPath>
</defs>
</svg>
