<svg width="16" height="10" viewBox="0 0 16 10" fill="none" xmlns="http://www.w3.org/2000/svg">
<path d="M8.54748 8.95114C9.12662 9.90917 11.7222 7.71114 12.1458 7.43914C13.0359 6.86703 13.9257 6.29517 14.8155 5.72306C15.1497 5.50827 15.8294 5.21174 15.7908 4.79109C15.7528 4.37937 15.2838 4.16381 14.9304 3.93701C13.9876 3.33093 13.0445 2.72485 12.1021 2.11852C11.4572 1.70399 10.8126 1.28947 10.1674 0.874945C9.97137 0.74903 9.59912 0.389674 9.32456 0.364388C8.02677 0.244347 8.40126 1.64295 8.43574 2.39538C8.03316 2.75116 3.16161 1.90525 2.51575 1.83272C2.20607 1.79798 1.27096 1.56812 1.01875 1.85851C0.672034 2.25771 0.826555 2.89674 0.826555 3.34574C0.826555 4.28079 0.826555 5.21608 0.826555 6.15112C0.826555 6.61673 0.671715 7.24937 1.05514 7.65521C1.33162 7.94765 2.05187 7.76784 2.40401 7.72826C3.63379 7.59034 4.86293 7.45191 6.09271 7.31399C6.86723 7.22715 7.64143 7.14006 8.41563 7.05322C8.40158 7.05449 8.38722 8.68603 8.54748 8.95114ZM9.94008 8.23038C9.88677 8.26486 9.83313 8.29934 9.7795 8.33357C8.75724 8.99073 8.83194 8.39487 8.89292 7.72059C8.90888 7.73106 8.92325 7.74409 8.93953 7.75226C9.25687 7.90832 9.57454 8.06335 9.89411 8.21634C9.90784 8.22272 9.92476 8.22528 9.94008 8.23038ZM13.208 6.08114C13.2221 6.08957 13.239 6.0934 13.2543 6.10004C13.1949 6.13835 13.1355 6.17666 13.0758 6.21472C13.065 6.20859 13.0589 6.20042 13.0461 6.19505C12.7272 6.05739 12.4089 5.91819 12.0925 5.77644C10.1913 4.77065 8.28601 3.76997 6.38579 2.76188C6.48252 2.77261 6.57862 2.78385 6.67599 2.79458C6.85414 2.86226 7.0342 2.92688 7.21011 2.99762C9.16748 3.92271 11.1012 4.87843 12.9561 5.93147C13.0401 5.98102 13.1237 6.03108 13.208 6.08114ZM9.68851 1.71957C10.018 1.81203 10.3468 1.90576 10.6753 1.9995C10.8417 2.04675 11.0977 2.14559 11.2465 2.22119C11.5884 2.39512 11.931 2.57595 12.2716 2.7601C12.4597 2.88116 12.648 3.00197 12.8361 3.12277C12.0236 2.7841 11.2133 2.44135 10.4084 2.08736C10.1613 1.9783 9.91327 1.86873 9.66584 1.75916C9.51196 1.69148 9.52218 1.67334 9.68851 1.71957ZM8.87632 2.00844C8.89835 2.02427 8.91974 2.04164 8.94368 2.05262C10.9898 3.00707 13.0519 3.94007 15.1267 4.85596C15.1303 4.85749 15.1341 4.858 15.1376 4.85953C15.0999 4.9027 15.045 4.94867 14.9678 4.99847C14.5387 5.27431 14.1096 5.55015 13.6805 5.82574C13.6681 5.81552 13.6601 5.80403 13.6444 5.79483C13.4171 5.66151 13.1892 5.52946 12.9596 5.39895C11.4837 4.53006 9.97712 3.69258 8.39679 2.96979C8.59441 2.94986 8.76139 2.86916 8.87696 2.65666C8.89675 2.62039 8.9009 2.57978 8.89547 2.53841C8.89547 2.53738 8.89579 2.53687 8.89579 2.53585C8.89579 2.46204 8.88079 2.25363 8.87632 2.00844ZM3.13128 2.39665C4.95424 3.14321 6.76954 3.901 8.55898 4.69403C9.14354 4.95582 9.7249 5.21736 10.2913 5.48732C10.7861 5.7223 11.2838 5.95267 11.7841 6.18024C11.9987 6.28291 12.2135 6.38584 12.4271 6.49005C12.4673 6.51125 12.5076 6.53296 12.5478 6.55441C12.3495 6.68186 12.1513 6.8093 11.953 6.93675C11.9412 6.92883 11.9345 6.91913 11.9201 6.91198C8.81853 5.37878 5.70034 3.86601 2.59524 2.33689C2.77403 2.35656 2.95281 2.37673 3.13128 2.39665ZM10.6645 6.83817C9.50781 6.30564 8.35752 5.76572 7.2232 5.20842C5.93532 4.57603 4.67425 3.90789 3.39403 3.2681C3.24461 3.19327 3.24429 3.19275 3.39466 3.26657C5.81783 4.45701 8.24674 5.6398 10.6696 6.83152C10.8196 6.90585 10.8174 6.90866 10.6645 6.83817ZM1.38398 2.30828C1.39068 2.2996 1.39675 2.28938 1.40377 2.28172C1.73069 2.44442 2.05729 2.60736 2.38453 2.76955C2.53458 2.84387 2.53426 2.84438 2.38294 2.77185C2.0525 2.61349 1.71952 2.45897 1.38398 2.30828ZM2.48159 4.33749C2.10327 4.18322 1.72335 4.03176 1.34216 3.88286C1.31662 3.8729 1.29395 3.87111 1.27 3.86754C1.26298 3.77508 1.2534 3.66091 1.24542 3.53321C1.26617 3.55109 1.28661 3.5705 1.30895 3.58455C1.70707 3.8254 2.10582 4.0665 2.50809 4.30275C2.64984 4.38703 2.63866 4.40159 2.48159 4.33749ZM1.323 5.5407C1.30863 5.5333 1.29618 5.53279 1.28246 5.52768C1.28246 5.14942 1.28246 4.77116 1.28246 4.3924C1.30225 4.40415 1.32077 4.41819 1.34216 4.42637C3.17917 5.13895 4.97467 5.92126 6.75613 6.72706C5.95735 6.81697 5.15888 6.90661 4.36042 6.99626C3.33432 6.52555 2.31749 6.0459 1.323 5.5407ZM2.65462 7.18782C2.58822 7.19522 2.52213 7.20263 2.45605 7.21004C2.29291 7.22843 2.13487 7.25754 1.98993 7.27951C1.76741 7.16738 1.54457 7.05501 1.32332 6.94161C1.30959 6.93471 1.29778 6.93267 1.28469 6.9273C1.28437 6.91581 1.28277 6.9061 1.28277 6.89436C1.28277 6.78402 1.28277 6.67343 1.28277 6.56309C1.30001 6.57382 1.31598 6.5871 1.33354 6.59502C1.77411 6.79168 2.21469 6.98937 2.65462 7.18782ZM8.91654 7.1845C8.90026 6.79934 8.76873 6.50128 8.26877 6.55747C8.09062 6.5774 7.9128 6.59757 7.73433 6.61749C5.53273 5.50086 3.39019 4.30913 1.30927 3.05407C1.28182 3.03747 1.25691 3.02981 1.23201 3.02291C1.23393 2.93403 1.23872 2.84796 1.24734 2.76597C1.27511 2.78564 1.30385 2.80479 1.33449 2.81884C3.73148 3.87826 5.98257 5.15964 8.33262 6.28138C9.20994 6.70025 10.0946 7.11145 10.9825 7.51806C10.9962 7.52419 11.0131 7.52623 11.0278 7.53108C10.8382 7.65291 10.6485 7.77499 10.4589 7.89682C10.4477 7.88993 10.4413 7.88124 10.4279 7.87511C9.93338 7.64755 9.43821 7.42024 8.944 7.19241C8.9341 7.18756 8.92612 7.18782 8.91654 7.1845Z" fill="#6E4990"/>
</svg>
