<svg width="16" height="10" viewBox="0 0 16 10" fill="none" xmlns="http://www.w3.org/2000/svg">
<path d="M8.66125 9.09323C9.24039 10.0513 11.836 7.85323 12.2596 7.58123C13.1497 7.00912 14.0395 6.43726 14.9292 5.86515C15.2635 5.65036 15.9432 5.35383 15.9046 4.93318C15.8666 4.52146 15.3976 4.3059 15.0442 4.0791C14.1014 3.47302 13.1583 2.86694 12.2159 2.26061C11.571 1.84608 10.9264 1.43156 10.2812 1.01704C10.0851 0.89112 9.71289 0.531764 9.43833 0.506478C8.14054 0.386437 8.51503 1.78504 8.54951 2.53747C8.14693 2.89325 3.27538 2.04734 2.62952 1.97481C2.31984 1.94007 1.38473 1.71021 1.13252 2.0006C0.785804 2.3998 0.940325 3.03883 0.940325 3.48783C0.940325 4.42287 0.940325 5.35817 0.940325 6.29321C0.940325 6.75882 0.785485 7.39146 1.16891 7.7973C1.44539 8.08974 2.16564 7.90993 2.51778 7.87035C3.74756 7.73243 4.9767 7.594 6.20648 7.45608C6.981 7.36924 7.7552 7.28215 8.5294 7.19531C8.51535 7.19658 8.50099 8.82812 8.66125 9.09323ZM10.0539 8.37247C10.0005 8.40695 9.9469 8.44143 9.89327 8.47566C8.871 9.13282 8.94571 8.53696 9.00669 7.86268C9.02265 7.87315 9.03702 7.88618 9.0533 7.89435C9.37064 8.05041 9.6883 8.20544 10.0079 8.35843C10.0216 8.36481 10.0385 8.36737 10.0539 8.37247ZM13.3218 6.22323C13.3358 6.23166 13.3527 6.23549 13.3681 6.24213C13.3087 6.28044 13.2493 6.31875 13.1896 6.35681C13.1787 6.35068 13.1727 6.34251 13.1599 6.33714C12.841 6.19948 12.5227 6.06028 12.2063 5.91853C10.3051 4.91274 8.39978 3.91206 6.49956 2.90397C6.59629 2.9147 6.69239 2.92594 6.78976 2.93667C6.96791 3.00435 7.14797 3.06897 7.32388 3.13971C9.28125 4.0648 11.215 5.02052 13.0699 6.07356C13.1538 6.12311 13.2375 6.17317 13.3218 6.22323ZM9.80228 1.86166C10.1318 1.95412 10.4606 2.04785 10.7891 2.14159C10.9554 2.18884 11.2115 2.28768 11.3603 2.36328C11.7022 2.53721 12.0447 2.71804 12.3854 2.90219C12.5734 3.02325 12.7618 3.14406 12.9498 3.26486C12.1373 2.92619 11.3271 2.58344 10.5222 2.22945C10.2751 2.12039 10.027 2.01082 9.77961 1.90125C9.62573 1.83357 9.63595 1.81543 9.80228 1.86166ZM8.99009 2.15053C9.01212 2.16636 9.03351 2.18373 9.05745 2.19471C11.1036 3.14916 13.1657 4.08216 15.2405 4.99805C15.244 4.99958 15.2479 5.00009 15.2514 5.00162C15.2137 5.04479 15.1588 5.09076 15.0815 5.14056C14.6524 5.4164 14.2234 5.69224 13.7943 5.96783C13.7818 5.95761 13.7738 5.94612 13.7582 5.93692C13.5309 5.8036 13.3029 5.67155 13.0734 5.54104C11.5975 4.67215 10.0909 3.83467 8.51056 3.11188C8.70818 3.09195 8.87515 3.01124 8.99073 2.79875C9.01052 2.76248 9.01467 2.72187 9.00924 2.68049C9.00924 2.67947 9.00956 2.67896 9.00956 2.67794C9.00956 2.60413 8.99456 2.39572 8.99009 2.15053ZM3.24505 2.53874C5.06801 3.2853 6.88331 4.04309 8.67275 4.83612C9.25731 5.09791 9.83867 5.35945 10.405 5.62941C10.8999 5.86439 11.3976 6.09476 11.8979 6.32233C12.1124 6.425 12.3273 6.52793 12.5409 6.63214C12.5811 6.65334 12.6213 6.67504 12.6616 6.6965C12.4633 6.82395 12.265 6.95139 12.0668 7.07884C12.055 7.07092 12.0483 7.06122 12.0339 7.05407C8.9323 5.52087 5.81411 4.0081 2.70901 2.47898C2.8878 2.49865 3.06658 2.51882 3.24505 2.53874ZM10.7783 6.98025C9.62158 6.44773 8.47129 5.90781 7.33697 5.35051C6.04909 4.71812 4.78802 4.04998 3.5078 3.41019C3.35838 3.33536 3.35806 3.33484 3.50843 3.40866C5.9316 4.5991 8.36051 5.78189 10.7834 6.97361C10.9334 7.04794 10.9312 7.05075 10.7783 6.98025ZM1.49775 2.45037C1.50445 2.44169 1.51052 2.43147 1.51754 2.42381C1.84446 2.58651 2.17106 2.74945 2.4983 2.91164C2.64835 2.98596 2.64803 2.98647 2.49671 2.91394C2.16627 2.75558 1.83329 2.60106 1.49775 2.45037ZM2.59536 4.47958C2.21704 4.32531 1.83712 4.17385 1.45593 4.02495C1.43039 4.01499 1.40772 4.0132 1.38377 4.00963C1.37675 3.91717 1.36717 3.803 1.35919 3.6753C1.37994 3.69318 1.40038 3.71259 1.42272 3.72664C1.82084 3.96749 2.21959 4.20859 2.62186 4.44484C2.76361 4.52912 2.75243 4.54368 2.59536 4.47958ZM1.43677 5.68279C1.4224 5.67539 1.40995 5.67488 1.39622 5.66977C1.39622 5.29151 1.39622 4.91325 1.39622 4.53449C1.41602 4.54624 1.43454 4.56028 1.45593 4.56846C3.29293 5.28104 5.08844 6.06335 6.8699 6.86915C6.07111 6.95906 5.27265 7.0487 4.47419 7.13835C3.44809 6.66764 2.43126 6.18799 1.43677 5.68279ZM2.76839 7.32991C2.70199 7.33731 2.6359 7.34472 2.56982 7.35213C2.40668 7.37052 2.24864 7.39963 2.1037 7.4216C1.88118 7.30947 1.65834 7.1971 1.43709 7.0837C1.42336 7.0768 1.41155 7.07476 1.39846 7.06939C1.39814 7.0579 1.39654 7.04819 1.39654 7.03644C1.39654 6.92611 1.39654 6.81552 1.39654 6.70518C1.41378 6.71591 1.42975 6.72919 1.44731 6.73711C1.88788 6.93377 2.32846 7.13146 2.76839 7.32991ZM9.03031 7.32659C9.01403 6.94143 8.8825 6.64337 8.38254 6.69956C8.20439 6.71949 8.02657 6.73966 7.8481 6.75958C5.6465 5.64295 3.50396 4.45122 1.42304 3.19616C1.39559 3.17956 1.37068 3.1719 1.34578 3.165C1.3477 3.07612 1.35249 2.99005 1.36111 2.90806C1.38888 2.92773 1.41761 2.94688 1.44826 2.96093C3.84525 4.02035 6.09634 5.30173 8.44639 6.42347C9.32371 6.84234 10.2084 7.25354 11.0962 7.66015C11.11 7.66628 11.1269 7.66832 11.1416 7.67317C10.9519 7.795 10.7623 7.91708 10.5726 8.03891C10.5615 8.03202 10.5551 8.02333 10.5417 8.0172C10.0471 7.78964 9.55198 7.56233 9.05777 7.3345C9.04787 7.32965 9.03989 7.32991 9.03031 7.32659Z" fill="white"/>
</svg>
