<svg width="25" height="16" viewBox="0 0 25 16" fill="none" xmlns="http://www.w3.org/2000/svg">
<path d="M11.6243 1.31668C10.6977 -0.216169 6.5448 3.30067 5.86695 3.73588C4.44281 4.65126 3.01917 5.56622 1.59554 6.4816C1.06072 6.82527 -0.0268004 7.29972 0.0350091 7.97276C0.0957943 8.63151 0.846178 8.97641 1.41165 9.33929C2.92008 10.309 4.42902 11.2787 5.93693 12.2489C6.96877 12.9121 8.0001 13.5754 9.03246 14.2386C9.3461 14.4401 9.9417 15.015 10.381 15.0555C12.4575 15.2475 11.8583 13.0098 11.8031 11.8059C12.4472 11.2366 20.2417 12.5901 21.2751 12.7062C21.7706 12.7617 23.2668 13.1295 23.6703 12.6649C24.225 12.0262 23.9778 11.0037 23.9778 10.2853C23.9778 8.78925 23.9778 7.29277 23.9778 5.7967C23.9778 5.05174 24.2255 4.03951 23.6121 3.39017C23.1697 2.92226 22.0173 3.20995 21.4539 3.27329C19.4862 3.49396 17.5196 3.71545 15.552 3.93612C14.3127 4.07506 13.074 4.21441 11.8353 4.35335C11.8578 4.35131 11.8807 1.74085 11.6243 1.31668ZM9.39616 2.46989C9.48146 2.41472 9.56728 2.35955 9.65309 2.30479C11.2887 1.25334 11.1692 2.20672 11.0716 3.28555C11.0461 3.2688 11.0231 3.24795 10.997 3.23488C10.4893 2.98519 9.98104 2.73714 9.46971 2.49236C9.44775 2.48215 9.42067 2.47806 9.39616 2.46989ZM4.16748 5.90867C4.145 5.89519 4.11793 5.88906 4.09341 5.87843C4.18842 5.81714 4.28344 5.75584 4.37896 5.69495C4.39632 5.70476 4.40603 5.71783 4.42646 5.72642C4.93676 5.94668 5.44604 6.16939 5.95226 6.39619C8.99415 8.00546 12.0427 9.60654 15.083 11.2195C14.9283 11.2023 14.7745 11.1843 14.6187 11.1672C14.3337 11.0589 14.0456 10.9555 13.7641 10.8423C10.6323 9.36217 7.53833 7.83301 4.57051 6.14814C4.43617 6.06886 4.30234 5.98877 4.16748 5.90867ZM9.79868 12.8872C9.27152 12.7393 8.74538 12.5893 8.21975 12.4393C7.95362 12.3637 7.54395 12.2056 7.30591 12.0846C6.75883 11.8063 6.21073 11.517 5.66569 11.2223C5.36482 11.0286 5.06345 10.8354 4.76258 10.6421C6.06259 11.1839 7.35904 11.7323 8.64679 12.2987C9.04216 12.4732 9.43906 12.6485 9.83494 12.8238C10.0812 12.9321 10.0648 12.9611 9.79868 12.8872ZM11.0982 12.425C11.0629 12.3997 11.0287 12.3719 10.9904 12.3543C7.7166 10.8272 4.41727 9.33438 1.0975 7.86897C1.09188 7.86651 1.08575 7.8657 1.08013 7.86324C1.14041 7.79418 1.22827 7.72063 1.35188 7.64094C2.03841 7.1996 2.72495 6.75826 3.41148 6.31732C3.4314 6.33367 3.44417 6.35206 3.4692 6.36677C3.8329 6.58008 4.19762 6.79136 4.56489 7.00018C6.92638 8.3904 9.3369 9.73037 11.8654 10.8868C11.5492 10.9187 11.2821 11.0479 11.0972 11.3878C11.0655 11.4459 11.0588 11.5109 11.0675 11.5771C11.0675 11.5787 11.067 11.5795 11.067 11.5811C11.067 11.6992 11.091 12.0327 11.0982 12.425ZM20.2902 11.8039C17.3735 10.6094 14.469 9.39691 11.6059 8.12805C10.6706 7.70918 9.74044 7.29073 8.83426 6.85878C8.0425 6.48283 7.24615 6.11422 6.4457 5.75012C6.10244 5.58584 5.75866 5.42115 5.41693 5.25443C5.35256 5.22051 5.2882 5.18577 5.22384 5.15145C5.54106 4.94753 5.85827 4.74361 6.17548 4.5397C6.19438 4.55236 6.20511 4.56789 6.2281 4.57934C11.1906 7.03246 16.1797 9.45289 21.1479 11.8995C20.8618 11.868 20.5758 11.8357 20.2902 11.8039ZM8.23712 4.69744C10.0878 5.54947 11.9283 6.41336 13.7432 7.30503C15.8038 8.31685 17.8215 9.38587 19.8699 10.4095C20.1089 10.5293 20.1094 10.5301 19.8688 10.412C15.9918 8.50728 12.1055 6.61482 8.22895 4.70806C7.98887 4.58914 7.99244 4.58465 8.23712 4.69744ZM23.0859 11.9452C23.0752 11.9591 23.0655 11.9755 23.0543 11.9877C22.5312 11.7274 22.0086 11.4667 21.485 11.2072C21.245 11.0883 21.2455 11.0875 21.4876 11.2035C22.0163 11.4569 22.5491 11.7041 23.0859 11.9452ZM21.3298 8.69853C21.9351 8.94535 22.5429 9.18768 23.1528 9.42592C23.1937 9.44186 23.23 9.44472 23.2683 9.45044C23.2795 9.59837 23.2948 9.78104 23.3076 9.98536C23.2744 9.95676 23.2417 9.9257 23.206 9.90322C22.569 9.51787 21.931 9.1321 21.2874 8.7541C21.0606 8.61925 21.0784 8.59595 21.3298 8.69853ZM23.1835 6.77338C23.2065 6.78523 23.2264 6.78604 23.2484 6.79422C23.2484 7.39943 23.2484 8.00464 23.2484 8.61067C23.2167 8.59187 23.1871 8.56939 23.1528 8.55632C20.2136 7.41618 17.3408 6.16449 14.4905 4.8752C15.7685 4.73135 17.0461 4.58792 18.3236 4.44448C19.9654 5.19762 21.5923 5.96507 23.1835 6.77338ZM21.0529 4.13799C21.1591 4.12614 21.2649 4.11429 21.3706 4.10244C21.6316 4.07302 21.8845 4.02643 22.1164 3.99129C22.4724 4.17069 22.829 4.35049 23.183 4.53193C23.2049 4.54297 23.2238 4.54624 23.2448 4.55482C23.2453 4.57321 23.2479 4.58874 23.2479 4.60753C23.2479 4.78407 23.2479 4.96102 23.2479 5.13755C23.2203 5.12039 23.1947 5.09914 23.1666 5.08647C22.4617 4.77181 21.7568 4.45552 21.0529 4.13799ZM11.0338 4.14331C11.0599 4.75955 11.2703 5.23644 12.0703 5.14654C12.3553 5.11467 12.6398 5.08238 12.9254 5.05051C16.4479 6.83713 19.876 8.74389 23.2055 10.752C23.2494 10.7786 23.2892 10.7908 23.3291 10.8018C23.326 10.9441 23.3183 11.0818 23.3046 11.2129C23.2601 11.1815 23.2141 11.1508 23.1651 11.1284C19.3299 9.43328 15.7282 7.38308 11.9681 5.58829C10.5644 4.91811 9.14892 4.26018 7.72835 3.60961C7.70639 3.5998 7.67931 3.59653 7.65582 3.58877C7.95924 3.39384 8.26266 3.19851 8.56609 3.00358C8.58396 3.01462 8.59418 3.02851 8.61563 3.03832C9.40688 3.40242 10.1992 3.76612 10.9899 4.13064C11.0057 4.1384 11.0185 4.13799 11.0338 4.14331Z" fill="#6E4990"/>
</svg>
