<svg width="23" height="23" viewBox="0 0 23 23" fill="none" xmlns="http://www.w3.org/2000/svg">
<g clip-path="url(#clip0)">
<path d="M21.099 12.3815H20.5159C19.7249 8.54758 16.4132 5.62611 12.3999 5.43876C12.3784 5.43082 12.3564 5.42383 12.3336 5.41808C11.5457 5.21975 10.9954 4.44853 10.9954 3.54262C10.9954 2.77762 11.6162 2.15521 12.3793 2.15521C12.9188 2.15521 13.3577 2.59538 13.3577 3.13639C13.3577 3.49186 13.6459 3.78004 14.0014 3.78004C14.3568 3.78004 14.645 3.49186 14.645 3.13639C14.645 1.88557 13.6286 0.86792 12.3793 0.86792C10.9064 0.86792 9.70807 2.06776 9.70807 3.54262C9.70807 4.30967 9.95815 5.02056 10.3847 5.57792C6.92198 6.22701 4.17459 8.93561 3.46374 12.3815H2.88056C1.8463 12.3815 1.00488 13.2223 1.00488 14.2559C1.00488 15.2894 1.8463 16.1303 2.88056 16.1303H3.51099C4.40931 19.9867 7.86985 22.8679 11.9898 22.8679C16.1097 22.8679 19.5703 19.9866 20.4686 16.1303H21.099C22.1333 16.1303 22.9747 15.2894 22.9747 14.2559C22.9747 13.2223 22.1333 12.3815 21.099 12.3815ZM9.72562 14.7526C9.37015 14.7515 9.08279 14.4626 9.08377 14.1071C9.08407 14.0068 9.05339 13.5064 8.41949 13.5046C8.41837 13.5046 8.41721 13.5046 8.41605 13.5046C7.78541 13.5046 7.75202 14.0032 7.75177 14.1033C7.75078 14.4588 7.46213 14.7472 7.10627 14.7451C6.75081 14.7441 6.46349 14.4551 6.46447 14.0996C6.4661 13.528 6.694 13.0225 7.10619 12.6764C7.45904 12.3802 7.92426 12.2172 8.41678 12.2172H8.42313C8.91806 12.2186 9.38483 12.3844 9.73746 12.6839C10.1476 13.0323 10.3727 13.539 10.371 14.1107C10.37 14.4655 10.082 14.7525 9.72742 14.7525C9.72686 14.7526 9.72626 14.7526 9.72562 14.7526ZM11.9898 20.304C10.8533 20.304 9.92871 19.38 9.92871 18.2442C9.92871 17.8887 10.2169 17.6006 10.5724 17.6006C10.9278 17.6006 11.216 17.8887 11.216 18.2442C11.216 18.6701 11.5631 19.0167 11.9898 19.0167C12.4165 19.0167 12.7636 18.6701 12.7636 18.2442C12.7636 17.8887 13.0518 17.6006 13.4072 17.6006C13.7627 17.6006 14.0509 17.8887 14.0509 18.2442C14.0508 19.38 13.1263 20.304 11.9898 20.304ZM16.8714 14.7526C16.8708 14.7526 16.8702 14.7526 16.8695 14.7526C16.5141 14.7515 16.2268 14.4625 16.2277 14.1071C16.2284 13.8734 16.1422 13.7096 15.9643 13.6062C15.7323 13.4714 15.3949 13.4704 15.1621 13.6039C14.9835 13.7063 14.8964 13.8696 14.8957 14.1033C14.8948 14.4582 14.6067 14.7451 14.2521 14.7451C14.2515 14.7451 14.2509 14.7451 14.2503 14.7451C13.8948 14.7441 13.6075 14.4551 13.6084 14.0996C13.6104 13.4066 13.9432 12.819 14.5216 12.4872C15.1573 12.1226 15.9775 12.1249 16.6111 12.4931C17.1876 12.8281 17.517 13.4177 17.515 14.1107C17.5141 14.4656 17.226 14.7526 16.8714 14.7526Z" fill="#E07753"/>
</g>
<defs>
<clipPath id="clip0">
<rect width="22" height="22" fill="white" transform="translate(0.990234 0.86792)"/>
</clipPath>
</defs>
</svg>
