<svg width="26" height="26" viewBox="0 0 26 26" fill="none" xmlns="http://www.w3.org/2000/svg">
<g clip-path="url(#clip0)">
<path d="M8.70598 14.9401C8.91288 14.9405 9.08865 14.789 9.11876 14.5841C9.14886 14.3794 9.02416 14.1837 8.82601 14.1243C7.96527 13.8662 7.03068 12.9212 6.26108 11.533C6.1496 11.3316 5.89612 11.2587 5.69472 11.3702C5.49332 11.4817 5.42049 11.7354 5.53197 11.9366C6.40695 13.5136 7.51934 14.6032 8.58596 14.9222C8.62481 14.934 8.6653 14.9401 8.70598 14.9401Z" fill="#6E4990"/>
<path d="M13.0087 5.68091C13.2664 6.26132 13.4009 6.88892 13.404 7.52404C13.404 7.75413 13.5905 7.94068 13.8206 7.94068C14.0507 7.94068 14.2372 7.75413 14.2372 7.52404C14.2344 6.77479 14.0763 6.03428 13.7732 5.34911C13.3871 4.44565 12.7715 3.65855 11.9874 3.06594C11.8033 2.92801 11.5423 2.96524 11.4042 3.14935C11.266 3.33346 11.3035 3.59467 11.4874 3.7326C12.1559 4.23814 12.6801 4.90989 13.0087 5.68091Z" fill="#6E4990"/>
<path d="M9.23768 2.94106C9.6175 2.94249 9.99446 3.00657 10.3535 3.13067C10.5714 3.20472 10.8082 3.08815 10.8823 2.87027C10.9563 2.65239 10.8397 2.41559 10.6219 2.34154C10.1763 2.18815 9.70884 2.10921 9.23768 2.10779C9.0076 2.10779 8.82104 2.29434 8.82104 2.52443C8.82104 2.75451 9.0076 2.94106 9.23768 2.94106Z" fill="#6E4990"/>
<path d="M17.1588 17.4589C16.298 17.2005 15.3634 16.2556 14.5938 14.8673C14.4824 14.6659 14.2289 14.5931 14.0275 14.7046C13.8261 14.8161 13.7532 15.0697 13.8647 15.2711C14.7397 16.848 15.8521 17.9376 16.9187 18.2566C17.0621 18.3023 17.219 18.2672 17.329 18.1646C17.4391 18.0621 17.4853 17.9081 17.4501 17.762C17.4149 17.6157 17.3034 17.4998 17.1588 17.4589Z" fill="#6E4990"/>
<path d="M20.3202 6.39907C20.1361 6.26114 19.8751 6.29837 19.7369 6.48248C19.5988 6.66659 19.6362 6.9278 19.8201 7.06573C20.4878 7.57086 21.0121 8.24159 21.3406 9.0114C21.599 9.59261 21.7339 10.2212 21.7367 10.8572C21.7367 11.0873 21.9233 11.2738 22.1534 11.2738C22.3834 11.2738 22.57 11.0873 22.57 10.8572C22.5672 10.1079 22.4091 9.36741 22.106 8.68224C21.7198 7.77878 21.1042 6.99168 20.3202 6.39907Z" fill="#6E4990"/>
<path d="M18.9546 5.67461C18.5091 5.52121 18.0416 5.44228 17.5704 5.44086C17.3404 5.44086 17.1538 5.62741 17.1538 5.8575C17.1538 6.08758 17.3404 6.27413 17.5704 6.27413C17.9503 6.27556 18.3272 6.33964 18.6863 6.46374C18.9042 6.53779 19.141 6.42122 19.215 6.20334C19.2891 5.98546 19.1725 5.74866 18.9546 5.67461Z" fill="#6E4990"/>
<path d="M17.5647 3.77432H17.558C16.7176 3.77819 15.8875 3.95904 15.1218 4.30509C14.0507 2.00646 11.7726 0.510595 9.23761 0.441223C5.68663 0.441223 2.57141 3.75093 2.57141 7.52406C2.57141 10.7876 4.81125 15.2235 7.75395 16.3868L7.57696 17.455C7.55682 17.5759 7.591 17.6993 7.67014 17.7927C7.74907 17.8861 7.86544 17.94 7.9877 17.94H8.65945L8.39559 18.7316C8.10834 19.5858 8.23467 20.5253 8.73777 21.2731L9.0472 21.7371C9.40565 22.2714 9.49557 22.9419 9.29051 23.5518L8.84396 24.8924C8.77113 25.1111 8.88953 25.3471 9.10803 25.42C9.32672 25.4926 9.56291 25.3744 9.63554 25.1557L10.0796 23.8146C10.3671 22.9604 10.2408 22.0209 9.73766 21.2731L9.42803 20.8091C9.06917 20.2748 8.97905 19.6043 9.18431 18.9944L9.53768 17.94H10.4875C10.61 17.94 10.7262 17.8861 10.8053 17.7927C10.8844 17.6993 10.9184 17.5759 10.8985 17.455L10.7213 16.3876C11.2295 16.1835 11.7037 15.9036 12.1278 15.5572C13.0028 17.3134 14.3835 19.0508 16.0859 19.7258L15.9097 20.7881C15.8896 20.909 15.9238 21.0324 16.0029 21.1258C16.0818 21.2192 16.1982 21.2731 16.3205 21.2731H16.9922L16.7283 22.0647C16.4411 22.9189 16.5674 23.8584 17.0705 24.6062L17.3795 25.0694C17.4129 25.1195 17.4438 25.1712 17.4725 25.2232C17.5455 25.3573 17.6861 25.4405 17.8387 25.4403C17.9083 25.4403 17.9766 25.4226 18.0375 25.389C18.2395 25.279 18.3141 25.0261 18.2041 24.8241C18.1624 24.7509 18.1209 24.6786 18.0733 24.6078L17.7638 24.1438C17.4048 23.6098 17.3149 22.939 17.5199 22.3293L17.8704 21.2731H18.8203C18.9427 21.2731 19.0589 21.2192 19.138 21.1258C19.2172 21.0324 19.2512 20.909 19.2312 20.7881L19.0561 19.7333C20.2494 19.2674 21.3848 18.247 22.3477 16.7442C23.4973 14.9837 24.1499 12.9452 24.2366 10.8443C24.2278 7.07569 21.1118 3.77432 17.5647 3.77432ZM3.40469 7.52406C3.40469 4.19462 6.13033 1.2745 9.23761 1.2745C11.4746 1.2745 13.5549 2.74392 14.5386 5.01956C14.8868 5.80889 15.0679 6.66149 15.0705 7.52406C15.0697 7.83064 15.0496 8.13661 15.0101 8.44075C14.9619 8.80449 14.8923 9.16518 14.8018 9.521C14.3363 11.4321 13.3625 13.1816 11.9838 14.5843C11.4636 15.1027 10.8295 15.4921 10.1321 15.7217C9.69758 15.8566 9.23802 15.8914 8.78802 15.8235C8.63646 15.8005 8.48693 15.7663 8.34026 15.7213C5.60668 14.8986 3.40469 10.5654 3.40469 7.52406ZM8.47941 17.1067L8.55854 16.6289C8.58316 16.6333 8.60737 16.6348 8.63178 16.6388C8.6564 16.6431 8.69261 16.6468 8.72312 16.6508C8.89137 16.6754 9.06103 16.6885 9.2311 16.6901H9.24433C9.4142 16.6887 9.58366 16.6756 9.7519 16.6514C9.78221 16.6472 9.81314 16.6443 9.84345 16.6392C9.87396 16.6344 9.89227 16.6339 9.91689 16.6293L9.99603 17.1067H8.47941ZM18.3288 20.4398H16.8122L16.8913 19.962C16.9383 19.9703 16.9855 19.9744 17.0321 19.9811C17.0713 19.9866 17.11 19.9923 17.1493 19.997C17.289 20.0132 17.4296 20.022 17.5704 20.0232H17.5818C17.8051 20.0226 18.0283 20.0024 18.2482 19.9632L18.3288 20.4398ZM21.6476 16.2942C20.7074 17.76 19.5744 18.7263 18.4425 19.0591C18.3115 19.0982 18.178 19.1285 18.043 19.1498L17.987 19.1578C17.7093 19.1972 17.4274 19.1972 17.1497 19.1578C17.1147 19.1529 17.0809 19.1446 17.0463 19.1382C16.9324 19.1189 16.8195 19.0933 16.7084 19.0616C15.0172 18.5774 13.6182 16.7643 12.7729 14.9786C12.7978 14.9536 12.8216 14.9253 12.8458 14.8999C12.8978 14.8451 12.9491 14.7894 13.0004 14.7332C13.0612 14.6659 13.1214 14.5975 13.1812 14.5278C13.2319 14.4682 13.2815 14.4077 13.3312 14.3461C13.3895 14.2745 13.4469 14.2015 13.5037 14.127C13.5525 14.0627 13.6009 13.9978 13.6485 13.9319C13.7043 13.8562 13.7584 13.7793 13.8111 13.7016C13.8583 13.6333 13.9044 13.5645 13.9502 13.4933C14.0023 13.4142 14.0532 13.3336 14.1036 13.2524C14.1482 13.1808 14.1923 13.1086 14.2356 13.0354C14.2845 12.952 14.3319 12.8687 14.3787 12.7853C14.4202 12.7099 14.4619 12.635 14.5036 12.5591C14.5489 12.4757 14.5927 12.3882 14.636 12.3026C14.6753 12.2251 14.7139 12.148 14.7516 12.0701C14.7931 11.9822 14.8348 11.8937 14.874 11.8054C14.9094 11.7267 14.9452 11.6483 14.9794 11.5692C15.0176 11.4797 15.0539 11.3892 15.0907 11.2988C15.1222 11.2193 15.1548 11.1401 15.1851 11.0604C15.2197 10.9689 15.2518 10.8771 15.2844 10.7851C15.3126 10.7056 15.3413 10.6259 15.3678 10.5459C15.3985 10.4525 15.4264 10.3598 15.4548 10.266C15.4788 10.1872 15.5035 10.1085 15.526 10.0298C15.5527 9.93519 15.5761 9.84059 15.6001 9.74559C15.6198 9.66849 15.6418 9.59138 15.6585 9.51428C15.6811 9.41724 15.7002 9.32142 15.7193 9.2252C15.7344 9.15094 15.751 9.07649 15.7643 9.00264C15.7822 8.90194 15.796 8.80266 15.8106 8.70318C15.8206 8.63483 15.833 8.56606 15.8414 8.49812C15.8552 8.38826 15.8639 8.27983 15.8731 8.1716C15.878 8.11566 15.8851 8.0591 15.889 8.00478C15.8993 7.84244 15.905 7.68152 15.905 7.52366C15.905 7.29744 15.8918 7.07162 15.8696 6.84703C15.8621 6.77277 15.8489 6.69913 15.8393 6.62528C15.8194 6.47454 15.7976 6.3242 15.7681 6.17467C15.751 6.08841 15.7293 6.00256 15.7089 5.91671C15.676 5.77919 15.6406 5.64248 15.5997 5.50638C15.573 5.4187 15.5443 5.33122 15.5142 5.24415C15.4931 5.1821 15.4768 5.11924 15.4538 5.05801C16.1158 4.7614 16.8329 4.6078 17.5584 4.6076H17.5643C20.6677 4.6076 23.3972 7.52122 23.4033 10.8456C23.3189 12.7866 22.7124 14.669 21.6476 16.2942Z" fill="#6E4990"/>
</g>
<defs>
<clipPath id="clip0">
<rect width="25" height="25" fill="white" transform="translate(0.903198 0.441223)"/>
</clipPath>
</defs>
</svg>
