<svg width="26" height="26" viewBox="0 0 26 26" fill="none" xmlns="http://www.w3.org/2000/svg">
<path d="M25.0447 13.692H11.54L12.6148 11.8304C12.7497 11.5968 12.6697 11.2982 12.4361 11.1634L9.07795 9.22449C8.96584 9.1598 8.83264 9.14227 8.70745 9.17572C8.58235 9.20926 8.47571 9.29105 8.41096 9.40321L5.86752 13.8087C5.72861 13.6112 5.54736 13.4445 5.33203 13.3202C4.52764 12.8557 3.49527 13.1323 3.03092 13.9368C2.79737 14.3413 2.75138 14.8034 2.86549 15.222C2.86285 15.2227 2.86017 15.2232 2.85753 15.2239C2.42291 15.3404 2.05963 15.6191 1.83464 16.0088C1.60964 16.3984 1.54987 16.8524 1.66633 17.2871C1.78278 17.7217 2.06154 18.085 2.45123 18.31C2.66666 18.4343 2.90177 18.5074 3.14234 18.529L0.59851 22.9349C0.533765 23.047 0.516187 23.1803 0.549731 23.3054C0.583276 23.4305 0.665063 23.5371 0.77722 23.6019L4.1354 25.5407C4.21231 25.5851 4.29624 25.6062 4.3791 25.6062C4.54785 25.6062 4.71196 25.5187 4.80239 25.362L10.1033 16.1805V25.1178C10.1033 25.3875 10.3219 25.6061 10.5916 25.6061H25.0447C25.3143 25.6061 25.5329 25.3875 25.5329 25.1178V14.1803C25.5329 13.9106 25.3143 13.692 25.0447 13.692ZM9.01252 10.3143L11.525 11.7649L8.69299 16.6702L6.18051 15.2196L9.01252 10.3143ZM7.52112 18.6999L5.00864 17.2493L5.69223 16.0653L8.20471 17.5159L7.52112 18.6999ZM3.87657 14.425C4.00757 14.1981 4.24605 14.0711 4.49092 14.0711C4.61099 14.0711 4.73252 14.1017 4.84375 14.1658C5.18183 14.361 5.29804 14.7948 5.10293 15.133L4.74888 15.7462L4.13574 15.3922C3.79761 15.197 3.68135 14.7631 3.87657 14.425ZM3.90655 17.205C3.71138 17.5431 3.27755 17.6594 2.93937 17.4642C2.60128 17.269 2.48502 16.8352 2.68024 16.497C2.77482 16.3333 2.92745 16.2161 3.11016 16.1671C3.17115 16.1508 3.23306 16.1427 3.29454 16.1427C3.41719 16.1427 3.53829 16.1749 3.64742 16.2379L4.26055 16.5919L3.90655 17.205ZM4.20083 24.4509L1.68835 23.0003L4.52036 18.0951L7.03285 19.5457L4.20083 24.4509ZM11.0799 14.6686H16.158V24.6295H11.0799V14.6686ZM24.5564 24.6295H19.4783V21.9805C19.4783 21.7108 19.2597 21.4922 18.99 21.4922C18.7203 21.4922 18.5017 21.7108 18.5017 21.9805V24.6295H17.1345V14.6686H18.5017V17.5859C18.5017 17.8556 18.7203 18.0742 18.99 18.0742C19.2597 18.0742 19.4783 17.8556 19.4783 17.5859V14.6686H24.5564V24.6295Z" fill="#6E4990"/>
<path d="M17.8181 12.1267C18.0878 12.1267 18.3064 11.9081 18.3064 11.6384V6.35926C18.3064 6.08958 18.0878 5.87097 17.8181 5.87097C17.5484 5.87097 17.3298 6.08958 17.3298 6.35926V11.6384C17.3298 11.9081 17.5484 12.1267 17.8181 12.1267Z" fill="#6E4990"/>
<path d="M20.7816 12.1267C21.0513 12.1267 21.2699 11.9081 21.2699 11.6385C21.2699 9.77478 21.9957 8.02266 23.3136 6.70489C23.5042 6.51422 23.5042 6.20505 23.3136 6.01434C23.1229 5.82367 22.8137 5.82367 22.623 6.01434C21.1207 7.51662 20.2933 9.51395 20.2933 11.6385C20.2933 11.9081 20.5119 12.1267 20.7816 12.1267Z" fill="#6E4990"/>
<path d="M14.3662 11.6385C14.3662 11.9081 14.5848 12.1267 14.8545 12.1267C15.1242 12.1267 15.3428 11.9081 15.3428 11.6385C15.3428 9.51395 14.5155 7.51657 13.0131 6.01433C12.8224 5.82367 12.5132 5.82367 12.3226 6.01438C12.1319 6.20505 12.1319 6.51421 12.3226 6.70488C13.6404 8.02265 14.3662 9.77478 14.3662 11.6385Z" fill="#6E4990"/>
<path d="M20.0968 2.2338C20.3665 2.2338 20.5851 2.01519 20.5851 1.74551V1.09448C20.5851 0.824806 20.3665 0.606201 20.0968 0.606201C19.8271 0.606201 19.6085 0.824806 19.6085 1.09448V1.74551C19.6085 2.01524 19.8271 2.2338 20.0968 2.2338Z" fill="#6E4990"/>
<path d="M20.0968 5.48886C20.3665 5.48886 20.5851 5.27026 20.5851 5.00059V4.34954C20.5851 4.07986 20.3665 3.86127 20.0968 3.86127C19.8271 3.86127 19.6085 4.07986 19.6085 4.34954V5.00059C19.6085 5.27026 19.8271 5.48886 20.0968 5.48886Z" fill="#6E4990"/>
<path d="M21.3988 3.53581H22.0498C22.3195 3.53581 22.5381 3.31719 22.5381 3.04751C22.5381 2.77782 22.3195 2.5592 22.0498 2.5592H21.3988C21.1291 2.5592 20.9105 2.77782 20.9105 3.04751C20.9105 3.31719 21.1291 3.53581 21.3988 3.53581Z" fill="#6E4990"/>
<path d="M18.1437 3.53581H18.7947C19.0644 3.53581 19.283 3.31719 19.283 3.04751C19.283 2.77782 19.0644 2.5592 18.7947 2.5592H18.1437C17.874 2.5592 17.6554 2.77782 17.6554 3.04751C17.6554 3.31719 17.874 3.53581 18.1437 3.53581Z" fill="#6E4990"/>
<path d="M10.0908 5.34446C10.9524 5.34446 11.6533 4.64366 11.6533 3.78225C11.6533 2.92083 10.9524 2.22003 10.0908 2.22003C9.22925 2.22003 8.52832 2.92083 8.52832 3.78225C8.52832 4.64366 9.22925 5.34446 10.0908 5.34446ZM10.0908 3.19642C10.4139 3.19642 10.6768 3.45921 10.6768 3.78225C10.6768 4.10528 10.4139 4.36808 10.0908 4.36808C9.76772 4.36808 9.50488 4.10528 9.50488 3.78225C9.50488 3.45921 9.76777 3.19642 10.0908 3.19642Z" fill="#6E4990"/>
<path d="M14.8549 3.74735C14.9833 3.74735 15.1093 3.69558 15.2001 3.60426C15.2909 3.51343 15.3431 3.38792 15.3431 3.25899C15.3431 3.13055 15.2909 3.00455 15.2001 2.91372C15.1093 2.82288 14.9833 2.77063 14.8549 2.77063C14.7264 2.77063 14.6004 2.82288 14.5092 2.91372C14.4183 3.00455 14.3666 3.13055 14.3666 3.25899C14.3666 3.38743 14.4183 3.51343 14.5092 3.60426C14.6004 3.69558 14.726 3.74735 14.8549 3.74735Z" fill="#6E4990"/>
<path d="M23.51 10.3561C23.6008 10.4469 23.7268 10.4991 23.8552 10.4991C23.9836 10.4991 24.1096 10.4469 24.2004 10.3561C24.2917 10.2653 24.3435 10.1394 24.3435 10.011C24.3435 9.88264 24.2917 9.7567 24.2004 9.66591C24.1096 9.57512 23.9836 9.52289 23.8552 9.52289C23.7268 9.52289 23.6008 9.57512 23.51 9.66591C23.4192 9.7567 23.3669 9.88264 23.3669 10.011C23.3669 10.1394 23.4192 10.2653 23.51 10.3561Z" fill="#6E4990"/>
<path d="M25.0446 4.838C25.173 4.838 25.2989 4.78576 25.3898 4.69494C25.4806 4.60413 25.5328 4.47816 25.5328 4.34975C25.5328 4.22086 25.4806 4.09538 25.3898 4.00408C25.2989 3.91327 25.173 3.86151 25.0446 3.86151C24.9161 3.86151 24.7902 3.91327 24.6993 4.00408C24.6085 4.09538 24.5563 4.22086 24.5563 4.34975C24.5563 4.47816 24.6085 4.60413 24.6993 4.69494C24.7902 4.78576 24.9161 4.838 25.0446 4.838Z" fill="#6E4990"/>
<path d="M18.9901 19.295C18.8617 19.295 18.7357 19.3467 18.6449 19.4381C18.5541 19.5289 18.5018 19.6544 18.5018 19.7833C18.5018 19.9118 18.5541 20.0378 18.6449 20.1286C18.7357 20.2194 18.8617 20.2717 18.9901 20.2717C19.1185 20.2717 19.2445 20.2194 19.3353 20.1286C19.4261 20.0378 19.4784 19.9118 19.4784 19.7833C19.4784 19.6544 19.4261 19.5289 19.3353 19.4381C19.2445 19.3467 19.1185 19.295 18.9901 19.295Z" fill="#6E4990"/>
</svg>
