<svg width="32" height="32" viewBox="0 0 32 32" fill="none" xmlns="http://www.w3.org/2000/svg">
<g clip-path="url(#clip0)">
<path d="M1.2008 24.6651H24.9362C25.1491 24.6651 25.3549 24.5906 25.5181 24.4548C25.746 24.2639 30.9465 19.7902 31.2636 10.1332H5.77217C5.45628 18.8992 0.666933 23.0195 0.617162 23.0606C0.325373 23.3071 0.218019 23.7098 0.34929 24.0682C0.479653 24.4256 0.819397 24.6651 1.2008 24.6651Z" fill="#6E4990"/>
<path d="M30.3849 4.68368H25.8437V3.77543C25.8437 3.26681 25.444 2.86719 24.9354 2.86719C24.4268 2.86719 24.0272 3.26681 24.0272 3.77543V4.68368H19.4254V3.77543C19.4254 3.26681 19.0258 2.86719 18.5172 2.86719C18.0086 2.86719 17.6089 3.26681 17.6089 3.77543V4.68368H13.0677V3.77543C13.0677 3.26681 12.6681 2.86719 12.1595 2.86719C11.6508 2.86719 11.2512 3.26681 11.2512 3.77543V4.68368H6.71C6.20139 4.68368 5.80176 5.0833 5.80176 5.59192V8.31665H31.2931V5.59192C31.2931 5.0833 30.8935 4.68368 30.3849 4.68368Z" fill="#6E4990"/>
<path d="M26.6846 25.8474C26.1914 26.258 25.5724 26.4816 24.9364 26.4816H5.80273V29.2063C5.80273 29.7084 6.20896 30.1146 6.71098 30.1146H30.3859C30.8879 30.1146 31.2941 29.7084 31.2941 29.2063V19.0251C29.543 23.3212 27.0995 25.5001 26.6846 25.8474Z" fill="#6E4990"/>
</g>
<defs>
<clipPath id="clip0">
<rect width="31" height="31" fill="white" transform="translate(0.293945 0.990845)"/>
</clipPath>
</defs>
</svg>
