<svg width="35" height="36" viewBox="0 0 35 36" fill="none" xmlns="http://www.w3.org/2000/svg">
<path d="M11.2766 22.7743H11.2782C11.2796 22.7743 11.2809 22.774 11.2822 22.774H29.873C30.3307 22.774 30.7331 22.4704 30.8589 22.0304L34.9605 7.6749C35.0489 7.36542 34.9869 7.0327 34.7933 6.77582C34.5995 6.51894 34.2964 6.3678 33.9746 6.3678H8.91182L8.17883 3.06919C8.07442 2.60002 7.65839 2.26624 7.17773 2.26624H1.02539C0.459023 2.26624 0 2.72526 0 3.29163C0 3.85799 0.459023 4.31702 1.02539 4.31702H6.35529C6.48506 4.90154 9.86298 20.1024 10.0574 20.9769C8.96763 21.4507 8.20312 22.5372 8.20312 23.7994C8.20312 25.4956 9.58313 26.8756 11.2793 26.8756H29.873C30.4394 26.8756 30.8984 26.4166 30.8984 25.8502C30.8984 25.2838 30.4394 24.8248 29.873 24.8248H11.2793C10.714 24.8248 10.2539 24.3647 10.2539 23.7994C10.2539 23.2349 10.7124 22.7756 11.2766 22.7743ZM32.6152 8.41858L29.0995 20.7233H12.1017L9.36737 8.41858H32.6152Z" fill="#735193"/>
<path d="M10.2539 29.9518C10.2539 31.6479 11.6339 33.028 13.3301 33.028C15.0262 33.028 16.4062 31.6479 16.4062 29.9518C16.4062 28.2556 15.0262 26.8756 13.3301 26.8756C11.6339 26.8756 10.2539 28.2556 10.2539 29.9518ZM13.3301 28.9264C13.8954 28.9264 14.3555 29.3865 14.3555 29.9518C14.3555 30.5171 13.8954 30.9772 13.3301 30.9772C12.7648 30.9772 12.3047 30.5171 12.3047 29.9518C12.3047 29.3865 12.7648 28.9264 13.3301 28.9264Z" fill="#735193"/>
<path d="M24.7461 29.9518C24.7461 31.6479 26.1261 33.028 27.8223 33.028C29.5184 33.028 30.8984 31.6479 30.8984 29.9518C30.8984 28.2556 29.5184 26.8756 27.8223 26.8756C26.1261 26.8756 24.7461 28.2556 24.7461 29.9518ZM27.8223 28.9264C28.3876 28.9264 28.8477 29.3865 28.8477 29.9518C28.8477 30.5171 28.3876 30.9772 27.8223 30.9772C27.257 30.9772 26.7969 30.5171 26.7969 29.9518C26.7969 29.3865 27.257 28.9264 27.8223 28.9264Z" fill="#735193"/>
</svg>
