<svg width="21" height="21" viewBox="0 0 21 21" fill="none" xmlns="http://www.w3.org/2000/svg">
<g clip-path="url(#clip0)">
<path d="M17.8367 3.6317C15.948 1.74295 13.4367 0.702759 10.7656 0.702759C8.09453 0.702759 5.58328 1.74295 3.69453 3.6317C1.80578 5.52045 0.765625 8.03167 0.765625 10.7028C0.765625 13.3739 1.80578 15.8851 3.69453 17.7738C5.58328 19.6625 8.09453 20.7028 10.7656 20.7028C13.4367 20.7028 15.948 19.6626 17.8367 17.7738C19.7255 15.8851 20.7656 13.3739 20.7656 10.7028C20.7656 8.03167 19.7255 5.52042 17.8367 3.6317ZM10.7656 18.7399C6.33387 18.7399 2.72844 15.1345 2.72844 10.7028C2.72844 10.6955 2.72867 10.6883 2.72871 10.6811C2.72871 10.6793 2.72844 10.6775 2.72844 10.6757C2.72844 10.6726 2.72883 10.6696 2.72891 10.6666C2.7484 6.28795 6.28695 2.72557 10.6564 2.66698C10.6655 2.66655 10.6746 2.66561 10.6839 2.66561C10.6894 2.66561 10.6948 2.66627 10.7003 2.66643C10.7221 2.66627 10.7438 2.66561 10.7657 2.66561C15.1974 2.66561 18.8029 6.27108 18.8029 10.7028C18.8029 15.1345 15.1974 18.7399 10.7656 18.7399Z" fill="#E07753"/>
<path d="M16.8709 11.1856C16.5441 11.1856 16.2792 10.9207 16.2792 10.5939C16.2792 10.2671 16.5441 10.0022 16.8709 10.0022H17.5841C17.2491 6.71794 14.5856 4.11259 11.2759 3.86798V4.48888C11.2759 4.81568 11.0109 5.0806 10.6841 5.0806C10.3573 5.0806 10.0924 4.81568 10.0924 4.48888V3.88212C6.83164 4.20165 4.23426 6.81579 3.94039 10.0839H4.57914C4.90594 10.0839 5.17086 10.3488 5.17086 10.6756C5.17086 11.0024 4.90594 11.2674 4.57914 11.2674H3.93555C4.20762 14.5881 6.85707 17.2457 10.1742 17.5307V16.7806C10.1742 16.4538 10.4391 16.1889 10.7659 16.1889C11.0927 16.1889 11.3577 16.4538 11.3577 16.7806V17.5307C14.702 17.2433 17.3675 14.5443 17.6025 11.1856H16.8709ZM13.1612 9.14427L11.1844 11.1212C11.0734 11.2322 10.9229 11.2945 10.766 11.2945C10.6091 11.2945 10.4585 11.2322 10.3476 11.1212L6.90645 7.68005C6.67535 7.449 6.67535 7.07435 6.90645 6.84325C7.1375 6.61216 7.51215 6.61216 7.74324 6.84325L10.766 9.86599L12.3245 8.30747C12.5556 8.07638 12.9302 8.07638 13.1613 8.30747C13.3923 8.53853 13.3923 8.91322 13.1612 9.14427Z" fill="#E07753"/>
</g>
<defs>
<clipPath id="clip0">
<rect width="20" height="20" fill="white" transform="translate(0.765625 0.702759)"/>
</clipPath>
</defs>
</svg>
