<svg width="26" height="26" viewBox="0 0 26 26" fill="none" xmlns="http://www.w3.org/2000/svg">
<g clip-path="url(#clip0)">
<path d="M4.39297 14.6832H6.34171C6.60512 14.6832 6.81874 14.4697 6.81874 14.2067V12.3461C6.81874 12.0829 6.60512 11.8696 6.34171 11.8696H4.39297C4.12976 11.8696 3.91614 12.0829 3.91614 12.3461V14.2067C3.91614 14.4697 4.12957 14.6832 4.39297 14.6832ZM4.87 12.8225H5.86488V13.7302H4.87V12.8225Z" fill="#6E4990"/>
<path d="M4.39297 18.4406H6.34171C6.60512 18.4406 6.81874 18.2274 6.81874 17.9641V16.1037C6.81874 15.8405 6.60512 15.6273 6.34171 15.6273H4.39297C4.12976 15.6273 3.91614 15.8405 3.91614 16.1037V17.9641C3.91614 18.2274 4.12957 18.4406 4.39297 18.4406ZM4.87 16.58H5.86488V17.4877H4.87V16.58Z" fill="#6E4990"/>
<path d="M11.44 10.2585H13.4887C13.7519 10.2585 13.9655 10.045 13.9655 9.78201V7.82564C13.9655 7.56242 13.7519 7.34918 13.4887 7.34918H11.44C11.1766 7.34918 10.9631 7.56242 10.9631 7.82564V9.78201C10.9629 10.045 11.1766 10.2585 11.44 10.2585ZM11.9168 8.30209H13.0116V9.30555H11.9168V8.30209Z" fill="#6E4990"/>
<path d="M15.6802 10.2585H17.7302C17.9936 10.2585 18.2071 10.045 18.2071 9.78201V7.82564C18.2071 7.56242 17.9936 7.34918 17.7302 7.34918H15.6802C15.4168 7.34918 15.2034 7.56242 15.2034 7.82564V9.78201C15.2034 10.045 15.4168 10.2585 15.6802 10.2585ZM16.157 8.30209H17.2532V9.30555H16.157V8.30209Z" fill="#6E4990"/>
<path d="M13.5398 11.4807H11.4913C11.2279 11.4807 11.0143 11.6941 11.0143 11.9572V13.9137C11.0143 14.1768 11.2279 14.3902 11.4913 14.3902H13.5398C13.8032 14.3902 14.0168 14.1768 14.0168 13.9137V11.9572C14.0168 11.6941 13.8034 11.4807 13.5398 11.4807ZM13.063 13.4373H11.9681V12.4336H13.063V13.4373Z" fill="#6E4990"/>
<path d="M17.7802 11.4807H15.7315C15.4681 11.4807 15.2546 11.6941 15.2546 11.9572V13.9137C15.2546 14.1768 15.4681 14.3902 15.7315 14.3902H17.7802C18.0436 14.3902 18.257 14.1768 18.257 13.9137V11.9572C18.257 11.6941 18.0436 11.4807 17.7802 11.4807ZM17.3031 13.4373H16.2083V12.4336H17.3031V13.4373Z" fill="#6E4990"/>
<path d="M25.2238 15.8289C24.897 14.708 24.3096 13.5286 23.6521 12.6741C23.2348 12.1315 22.7202 11.5767 22.0665 11.5765C22.0663 11.5765 22.0661 11.5765 22.0661 11.5765C21.5122 11.5765 21.0652 11.9621 20.6692 12.4334V5.01958L20.8107 5.01977C21.5763 5.01977 22.1993 4.39645 22.1993 3.63046C22.1993 2.86446 21.5763 2.24133 20.8107 2.24133H8.28116C7.51555 2.24133 6.89261 2.86446 6.89261 3.63046C6.89261 4.39645 7.51555 5.01977 8.28116 5.01977H8.42268V7.15199H1.94876C1.16084 7.15199 0.519775 7.79267 0.519775 8.58022C0.519775 9.23692 0.965523 9.79119 1.57053 9.95751V23.1398H1.35729C1.09389 23.1398 0.880455 23.353 0.880455 23.6162C0.880455 23.8792 1.09389 24.0927 1.35729 24.0927H22.6C22.8634 24.0927 23.077 23.8792 23.077 23.6162C23.077 23.3618 22.8773 23.1545 22.6259 23.1411V20.8458C24.1633 20.715 24.8659 19.9524 25.186 19.3031C25.7317 18.1967 25.5078 16.8032 25.2238 15.8289ZM1.94876 8.1049H8.42268V9.05572H1.94876C1.68669 9.05572 1.47364 8.84248 1.47364 8.58041C1.47364 8.31815 1.68669 8.1049 1.94876 8.1049ZM8.42268 23.1398H2.52421V10.0086H8.42268V23.1398ZM13.9191 23.1398H12.2395V18.1463H13.9191V23.1398ZM16.5526 23.1398H14.873V18.1463H16.5526V23.1398ZM19.7153 23.1398H17.5064V17.6699C17.5064 17.4069 17.2928 17.1934 17.0294 17.1934H11.7626C11.4992 17.1934 11.2856 17.4069 11.2856 17.6699V23.1398H9.37655V5.01977H12.6457C12.9091 5.01977 13.1228 4.80634 13.1228 4.54331C13.1228 4.2801 12.9091 4.06686 12.6457 4.06686H8.28116C8.0456 4.06686 7.84647 3.86697 7.84647 3.63046C7.84647 3.38994 8.0414 3.19424 8.28116 3.19424H20.8107C21.0505 3.19424 21.2454 3.38994 21.2454 3.63046C21.2454 3.86697 21.0463 4.06686 20.8109 4.06686L16.4448 4.06552C16.4448 4.06552 16.4448 4.06552 16.4446 4.06552C16.1814 4.06552 15.9678 4.27876 15.9678 4.54179C15.9676 4.805 16.181 5.01824 16.4444 5.01843L19.7153 5.01939V13.8716C19.1426 14.9603 18.7756 16.1676 18.705 17.2022C18.6178 18.4813 18.9665 19.4815 19.7153 20.1134V23.1398ZM21.6721 23.1398H20.6692V20.561C20.907 20.7016 21.2261 20.8033 21.6721 20.8448V23.1398ZM24.3305 18.882C24.0441 19.4626 23.4711 19.7994 22.6259 19.8881V17.8917L23.3313 17.2211C23.5222 17.0397 23.5296 16.7381 23.3481 16.5474C23.1665 16.3569 22.8646 16.3494 22.6738 16.5308L22.6259 16.5762V15.0532C22.6259 14.7902 22.4125 14.5767 22.1491 14.5767C21.8857 14.5767 21.6723 14.7902 21.6723 15.0532V15.9163L21.6261 15.8722C21.4354 15.6906 21.1334 15.6979 20.9519 15.8884C20.7701 16.0788 20.7773 16.3803 20.9679 16.5619L21.6723 17.2327V17.8555L21.2874 17.5816C21.0728 17.429 20.7751 17.479 20.6223 17.6931C20.4695 17.9075 20.5195 18.2051 20.734 18.3577L21.6723 19.0252V19.8879C20.7972 19.7962 20.2006 19.441 19.8975 18.8265C19.3112 17.6376 19.8096 15.7494 20.5481 14.337C20.5519 14.3295 20.5557 14.3223 20.5595 14.315C20.7653 13.9242 20.9893 13.5704 21.2132 13.2792C21.6902 12.6595 21.9404 12.5294 22.0661 12.5294H22.0663C22.1905 12.5294 22.4352 12.6553 22.896 13.2547C23.9714 14.6526 25.0681 17.3859 24.3305 18.882Z" fill="#6E4990"/>
<path d="M14.5552 4.06689H14.5457C14.2823 4.06689 14.0688 4.28014 14.0688 4.54335C14.0688 4.80637 14.2823 5.01981 14.5457 5.01981H14.5552C14.8186 5.01981 15.0321 4.80637 15.0321 4.54335C15.0321 4.28014 14.8186 4.06689 14.5552 4.06689Z" fill="#6E4990"/>
</g>
<defs>
<clipPath id="clip0">
<rect width="25" height="25" fill="white" transform="translate(0.519775 0.678833)"/>
</clipPath>
</defs>
</svg>
