<svg width="24" height="24" viewBox="0 0 24 24" fill="none" xmlns="http://www.w3.org/2000/svg">
<g clip-path="url(#clip0)">
<path d="M6.12012 14.5368H11.4868V10.7034H6.12012V14.5368ZM6.88678 13.7701V12.6201H10.7201V13.7701H6.88678ZM10.7201 11.4701V11.8534H6.88678V11.4701H10.7201Z" fill="#6E4990"/>
<path d="M6.12012 16.0701V20.6701H11.4868V16.0701H6.12012ZM8.42012 16.8368V17.9868H6.88678V16.8368H8.42012ZM6.88678 18.7535H8.42012V19.9035H6.88678V18.7535ZM9.18678 19.9035V18.7535H10.7201V19.9035H9.18678ZM10.7201 17.9868H9.18678V16.8368H10.7201V17.9868Z" fill="#6E4990"/>
<path d="M13.0201 14.5368H18.3868V10.7034H13.0201V14.5368ZM13.7868 13.7701V13.3868H17.6201V13.7701H13.7868ZM17.6201 11.4701V12.6201H13.7868V11.4701H17.6201Z" fill="#6E4990"/>
<path d="M23.3701 19.1368C23.1581 19.1368 22.9868 19.3085 22.9868 19.5201V19.9035H22.6034V19.5201C22.6034 19.3085 22.4321 19.1368 22.2201 19.1368C22.0081 19.1368 21.8368 19.3085 21.8368 19.5201V19.9035H21.4534V12.1586C21.6531 12.2483 21.8647 12.2977 22.0767 12.2977C22.488 12.2977 22.8967 12.1306 23.1987 11.8055C23.4901 11.492 23.6377 11.0676 23.6039 10.641C23.5698 10.2147 23.3571 9.81872 23.0205 9.55499L13.2969 1.94927L12.2534 0.980591L11.2349 1.92819L1.48673 9.55499C1.14978 9.81872 0.937035 10.2147 0.903301 10.641C0.869568 11.0676 1.01715 11.492 1.30848 11.8055C1.76618 12.2985 2.46653 12.4227 3.0538 12.159V19.9038H2.67008V19.5205C2.67008 19.3089 2.49873 19.1372 2.28675 19.1372C2.07477 19.1372 1.90342 19.3089 1.90342 19.5205V19.9038H1.52008V19.5205C1.52008 19.3089 1.34873 19.1372 1.13675 19.1372C0.924768 19.1372 0.753418 19.3089 0.753418 19.5205V22.9705C0.753418 23.1821 0.924768 23.3538 1.13675 23.3538C1.34873 23.3538 1.52008 23.1821 1.52008 22.9705V22.5872H1.90342V22.9705C1.90342 23.1821 2.07477 23.3538 2.28675 23.3538C2.49873 23.3538 2.67008 23.1821 2.67008 22.9705V22.5872H3.05342V23.3538H13.0201H18.3868H21.4534V22.5872H21.8368V22.9705C21.8368 23.1821 22.0081 23.3538 22.2201 23.3538C22.4321 23.3538 22.6034 23.1821 22.6034 22.9705V22.5872H22.9868V22.9705C22.9868 23.1821 23.1581 23.3538 23.3701 23.3538C23.5821 23.3538 23.7534 23.1821 23.7534 22.9705V19.5205C23.7534 19.3085 23.5821 19.1368 23.3701 19.1368ZM1.86968 11.2834C1.7221 11.1244 1.65042 10.9177 1.66767 10.7015C1.68492 10.4853 1.78803 10.2925 1.95938 10.1587L11.7321 2.51124L12.2538 2.02632L12.7997 2.53194L22.5478 10.1587C22.7188 10.2925 22.8223 10.4853 22.8396 10.7015C22.8568 10.9177 22.7847 11.1247 22.6375 11.2834C22.3661 11.5755 21.9242 11.6123 21.6079 11.3689L21.4534 11.2501L12.2534 4.15842L3.20292 11.1351L3.20253 11.1355L2.89932 11.3689C2.58268 11.6123 2.14108 11.5755 1.86968 11.2834ZM1.52008 21.8201V20.6701H1.90342V21.8201H1.52008ZM2.67008 21.8201V20.6701H3.05342V21.8201H2.67008ZM13.7868 22.5868V16.8368H17.6201V22.5868H13.7868ZM20.6868 22.5868H18.3868V16.0701H13.0201V22.5868H3.82008V11.6269L12.2534 5.12596L20.6868 11.6269V22.5868ZM21.4534 21.8201V20.6701H21.8368V21.8201H21.4534ZM22.6034 21.8201V20.6701H22.9868V21.8201H22.6034Z" fill="#6E4990"/>
</g>
<defs>
<clipPath id="clip0">
<rect width="23" height="23" fill="white" transform="translate(0.753418 0.666992)"/>
</clipPath>
</defs>
</svg>
