<svg width="27" height="28" viewBox="0 0 27 28" fill="none" xmlns="http://www.w3.org/2000/svg">
<path d="M13.2911 27.3129C13.2047 27.3129 13.1184 27.3129 13.0315 27.3125C10.9881 27.3177 9.10003 27.2639 7.26388 27.1481C5.58047 27.042 4.04384 26.4395 2.81987 25.4058C1.63886 24.4084 0.832356 23.0598 0.422841 21.3978C0.0664295 19.9509 0.0475348 18.5306 0.0294358 17.1568C0.016309 16.1711 0.00278447 15.0031 0 13.8154C0.00278447 12.6227 0.016309 11.4547 0.0294358 10.469C0.0475348 9.09545 0.0664295 7.67513 0.422841 6.22802C0.832356 4.56606 1.63886 3.21742 2.81987 2.22C4.04384 1.18633 5.58047 0.583794 7.26407 0.477707C9.10023 0.362145 10.9887 0.308175 13.0365 0.313325C15.0805 0.308793 16.9679 0.362145 18.8041 0.477707C20.4875 0.583794 22.0241 1.18633 23.2481 2.22C24.4293 3.21742 25.2356 4.56606 25.6451 6.22802C26.0015 7.67492 26.0204 9.09545 26.0385 10.469C26.0517 11.4547 26.0654 12.6227 26.068 13.8104C26.0654 15.0031 26.0517 16.1711 26.0385 17.1568C26.031 17.7394 25.5664 18.2049 25.0065 18.1971C24.444 18.189 23.9945 17.7103 24.0021 17.128C24.015 16.1481 24.0287 14.9877 24.0313 13.8104C24.0287 12.6381 24.015 11.4778 24.0021 10.4979C23.9856 9.24727 23.9685 7.95404 23.6717 6.7496C23.3724 5.53465 22.7968 4.56071 21.9611 3.85477C21.0571 3.09115 19.9533 2.6633 18.6804 2.58317C16.8874 2.47028 15.0417 2.41817 13.0365 2.42249C11.0265 2.41755 9.18058 2.47028 7.38759 2.58317C6.11469 2.6633 5.01104 3.09115 4.10689 3.85456C3.27115 4.5605 2.69556 5.53444 2.39623 6.7496C2.09949 7.95404 2.08238 9.24727 2.06587 10.4979C2.05295 11.4778 2.03942 12.6381 2.03664 13.8154C2.03942 14.9877 2.05295 16.1481 2.06587 17.128C2.08238 18.3786 2.09949 19.6718 2.39623 20.8762C2.69556 22.0912 3.27115 23.0651 4.10689 23.7711C5.01104 24.5347 6.11469 24.9625 7.38759 25.0427C9.18058 25.1555 11.0269 25.2083 13.0317 25.2031C15.0419 25.2081 16.8874 25.1555 18.6804 25.0427C19.9533 24.9625 21.0569 24.5347 21.9611 23.7711C22.5631 23.2625 23.0335 22.6099 23.3591 21.8312C23.5826 21.2969 24.1821 21.0511 24.6982 21.2827C25.2143 21.5142 25.4514 22.1351 25.2281 22.6696C24.7716 23.7612 24.1055 24.6818 23.2481 25.4058C22.0241 26.4397 20.4875 27.042 18.8041 27.1481C17.0457 27.2589 15.2394 27.3129 13.2911 27.3129ZM19.3475 13.8129C19.3475 10.1782 16.4924 7.22112 12.983 7.22112C9.47375 7.22112 6.61848 10.1782 6.61848 13.8129C6.61848 17.4477 9.47375 20.4047 12.983 20.4047C16.4924 20.4047 19.3475 17.4477 19.3475 13.8129ZM17.3108 13.8129C17.3108 16.2844 15.3695 18.2953 12.983 18.2953C10.5967 18.2953 8.65512 16.2844 8.65512 13.8129C8.65512 11.3414 10.5967 9.33049 12.983 9.33049C15.3695 9.33049 17.3108 11.3414 17.3108 13.8129ZM20.0603 5.11174C19.2168 5.11174 18.5328 5.81995 18.5328 6.69377C18.5328 7.5676 19.2168 8.2758 20.0603 8.2758C20.904 8.2758 21.5878 7.5676 21.5878 6.69377C21.5878 5.81995 20.904 5.11174 20.0603 5.11174Z" fill="white"/>
</svg>
