<svg width="27" height="27" viewBox="0 0 27 27" fill="none" xmlns="http://www.w3.org/2000/svg">
<path d="M13.2911 27.0004C13.2047 27.0004 13.1184 27.0004 13.0315 26.9999C10.9881 27.0051 9.10003 26.9513 7.26388 26.8356C5.58047 26.7295 4.04384 26.1269 2.81987 25.0933C1.63886 24.0958 0.832356 22.7472 0.422841 21.0852C0.0664295 19.6383 0.0475348 18.218 0.0294358 16.8442C0.016309 15.8586 0.00278447 14.6906 0 13.5028C0.00278447 12.3101 0.016309 11.1421 0.0294358 10.1565C0.0475348 8.78289 0.0664295 7.36257 0.422841 5.91546C0.832356 4.2535 1.63886 2.90486 2.81987 1.90744C4.04384 0.873765 5.58047 0.271233 7.26407 0.165146C9.10023 0.049584 10.9887 -0.00438636 13.0365 0.000763487C15.0805 -0.00376837 16.9679 0.049584 18.8041 0.165146C20.4875 0.271233 22.0241 0.873765 23.2481 1.90744C24.4293 2.90486 25.2356 4.2535 25.6451 5.91546C26.0015 7.36236 26.0204 8.78289 26.0385 10.1565C26.0517 11.1421 26.0654 12.3101 26.068 13.4979C26.0654 14.6906 26.0517 15.8586 26.0385 16.8442C26.031 17.4268 25.5664 17.8923 25.0065 17.8845C24.444 17.8765 23.9945 17.3978 24.0021 16.8154C24.015 15.8355 24.0287 14.6751 24.0313 13.4979C24.0287 12.3256 24.015 11.1652 24.0021 10.1853C23.9856 8.93471 23.9685 7.64148 23.6717 6.43704C23.3724 5.22209 22.7968 4.24815 21.9611 3.54221C21.0571 2.77859 19.9533 2.35074 18.6804 2.27061C16.8874 2.15772 15.0417 2.10561 13.0365 2.10993C11.0265 2.10499 9.18058 2.15772 7.38759 2.27061C6.11469 2.35074 5.01104 2.77859 4.10689 3.542C3.27115 4.24794 2.69556 5.22188 2.39623 6.43704C2.09949 7.64148 2.08238 8.93471 2.06587 10.1853C2.05295 11.1652 2.03942 12.3256 2.03664 13.5028C2.03942 14.6751 2.05295 15.8355 2.06587 16.8154C2.08238 18.066 2.09949 19.3592 2.39623 20.5637C2.69556 21.7786 3.27115 22.7526 4.10689 23.4585C5.01104 24.2221 6.11469 24.65 7.38759 24.7301C9.18058 24.843 11.0269 24.8957 13.0317 24.8906C15.0419 24.8955 16.8874 24.843 18.6804 24.7301C19.9533 24.65 21.0569 24.2221 21.9611 23.4585C22.5631 22.9499 23.0335 22.2973 23.3591 21.5187C23.5826 20.9843 24.1821 20.7386 24.6982 20.9701C25.2143 21.2016 25.4514 21.8225 25.2281 22.3571C24.7716 23.4486 24.1055 24.3692 23.2481 25.0933C22.0241 26.1271 20.4875 26.7295 18.8041 26.8356C17.0457 26.9464 15.2394 27.0004 13.2911 27.0004ZM19.3475 13.5004C19.3475 9.86559 16.4924 6.90856 12.983 6.90856C9.47375 6.90856 6.61848 9.86559 6.61848 13.5004C6.61848 17.1351 9.47375 20.0922 12.983 20.0922C16.4924 20.0922 19.3475 17.1351 19.3475 13.5004ZM17.3108 13.5004C17.3108 15.9719 15.3695 17.9828 12.983 17.9828C10.5967 17.9828 8.65512 15.9719 8.65512 13.5004C8.65512 11.0288 10.5967 9.01793 12.983 9.01793C15.3695 9.01793 17.3108 11.0288 17.3108 13.5004ZM20.0603 4.79918C19.2168 4.79918 18.5328 5.50739 18.5328 6.38121C18.5328 7.25504 19.2168 7.96324 20.0603 7.96324C20.904 7.96324 21.5878 7.25504 21.5878 6.38121C21.5878 5.50739 20.904 4.79918 20.0603 4.79918Z" fill="#735193"/>
</svg>
