<svg width="25" height="25" viewBox="0 0 25 25" fill="none" xmlns="http://www.w3.org/2000/svg">
<path d="M24.8008 7.00114C24.8008 4.94135 24.5436 2.96998 24.0788 1.13987C24.0092 0.863196 23.8256 0.62938 23.5742 0.494636C23.4258 0.415261 23.261 0.374939 23.095 0.374939C22.9817 0.374939 22.8678 0.39362 22.7585 0.432252C20.4018 1.26024 16.7656 1.79288 12.6759 1.79288C8.58605 1.79288 4.94991 1.26024 2.59316 0.432252C2.48445 0.39362 2.37118 0.374939 2.2579 0.374939C2.09197 0.374939 1.92645 0.415683 1.77734 0.495313C1.5267 0.630056 1.34251 0.863787 1.27277 1.13987C0.808012 2.97007 0.550781 4.94135 0.550781 7.00114C0.550781 16.5513 5.97917 24.2929 12.6759 24.2929C19.3724 24.2929 24.8008 16.5513 24.8008 7.00114ZM5.40621 9.15028C5.40621 8.29406 6.43623 7.60014 7.70708 7.60014C8.97785 7.60014 10.0079 9.09415 10.0079 9.95038C10.0079 10.8064 8.97785 10.7004 7.70708 10.7004C6.43623 10.7004 5.40621 10.0063 5.40621 9.15028ZM12.6759 21.0239C9.93746 21.0239 7.71757 18.8039 7.71757 16.0658C7.71757 15.7089 7.76567 15.3657 7.84377 15.033C7.86524 14.9421 7.93304 14.8684 8.02214 14.8384C8.1114 14.8091 8.20963 14.828 8.28131 14.8879C9.22587 15.6816 10.8327 16.2089 12.6758 16.2089C14.5189 16.2089 16.1257 15.6816 17.0702 14.8879C17.1419 14.8273 17.2402 14.8085 17.3294 14.8384C17.4185 14.8678 17.4862 14.9421 17.5077 15.033C17.5858 15.3657 17.634 15.7089 17.634 16.0658C17.6341 18.8039 15.4141 21.0239 12.6759 21.0239ZM15.3437 9.95038C15.3437 9.09415 16.3737 7.60014 17.6446 7.60014C18.9153 7.60014 19.9454 8.29406 19.9454 9.15028C19.9454 10.0063 18.9153 10.7004 17.6446 10.7004C16.3737 10.7004 15.3437 10.8064 15.3437 9.95038Z" fill="#6E4990"/>
</svg>
