<svg width="40" height="41" viewBox="0 0 40 41" fill="none" xmlns="http://www.w3.org/2000/svg">
<g clip-path="url(#clip0)">
<path d="M39.2783 14.8898C39.2086 14.6131 39.025 14.3795 38.7737 14.2445C38.5231 14.1105 38.2268 14.0877 37.958 14.1822C35.6012 15.0101 31.965 15.5429 27.8753 15.5429C26.8811 15.5429 25.9228 15.505 24.9937 15.4452C24.5133 17.6157 23.7457 19.6086 22.7652 21.3638C22.8129 21.3619 22.8585 21.3541 22.9066 21.3541C24.1774 21.3541 25.2073 21.2481 25.2073 22.1041C25.2073 22.9602 24.1773 24.4544 22.9066 24.4544C22.1663 24.4544 21.5146 24.2148 21.094 23.849C19.8239 25.4258 18.3401 26.6692 16.7061 27.4915C18.5484 33.6928 22.8558 38.0431 27.8753 38.0431C34.5719 38.0431 40.0004 30.3013 40.0004 20.7513C40.0003 18.6913 39.743 16.72 39.2783 14.8898ZM32.7074 32.994C32.6859 33.0851 32.6181 33.1594 32.529 33.1887C32.4397 33.2185 32.3415 33.1997 32.2698 33.1391C31.3253 32.3454 29.7185 31.8181 27.8754 31.8181C26.0322 31.8181 24.4254 32.3454 23.481 33.1391C23.4092 33.1991 23.3109 33.2179 23.2218 33.1887C23.1326 33.1587 23.0649 33.0851 23.0434 32.994C22.9652 32.6613 22.9171 32.3182 22.9171 31.9614C22.9171 29.223 25.1372 27.0031 27.8755 27.0031C30.6138 27.0031 32.8337 29.2231 32.8337 31.9614C32.8336 32.3182 32.7855 32.6613 32.7074 32.994ZM32.844 24.4543C31.5732 24.4543 30.5433 22.9601 30.5433 22.1041C30.5433 21.248 31.5733 21.354 32.844 21.354C34.1148 21.354 35.1448 22.0481 35.1448 22.9042C35.1448 23.7602 34.1148 24.4543 32.844 24.4543Z" fill="#6E4990"/>
<path d="M24.25 10.0011C24.25 7.94135 23.9928 5.96998 23.528 4.13987C23.4584 3.8632 23.2748 3.62938 23.0235 3.49464C22.875 3.41526 22.7103 3.37494 22.5442 3.37494C22.4309 3.37494 22.317 3.39362 22.2077 3.43225C19.851 4.26024 16.2148 4.79288 12.1251 4.79288C8.03527 4.79288 4.39913 4.26024 2.04238 3.43225C1.93367 3.39362 1.82039 3.37494 1.70712 3.37494C1.54119 3.37494 1.37567 3.41568 1.22656 3.49531C0.975921 3.63006 0.791726 3.86379 0.721987 4.13987C0.257231 5.97007 0 7.94135 0 10.0011C0 19.5513 5.42839 27.2929 12.1251 27.2929C18.8216 27.2929 24.25 19.5513 24.25 10.0011ZM4.85543 12.1503C4.85543 11.2941 5.88545 10.6001 7.1563 10.6001C8.42707 10.6001 9.45709 12.0942 9.45709 12.9504C9.45709 13.8064 8.42707 13.7004 7.1563 13.7004C5.88545 13.7004 4.85543 13.0063 4.85543 12.1503ZM12.1251 24.0239C9.38668 24.0239 7.16679 21.8039 7.16679 19.0658C7.16679 18.7089 7.21488 18.3657 7.29299 18.033C7.31446 17.9421 7.38226 17.8684 7.47135 17.8384C7.56062 17.8091 7.65885 17.828 7.73053 17.8879C8.67509 18.6816 10.2819 19.2089 12.125 19.2089C13.9681 19.2089 15.5749 18.6816 16.5194 17.8879C16.5912 17.8273 16.6894 17.8085 16.7786 17.8384C16.8678 17.8678 16.9355 17.9421 16.9569 18.033C17.035 18.3657 17.0832 18.7089 17.0832 19.0658C17.0833 21.8039 14.8633 24.0239 12.1251 24.0239ZM14.7929 12.9504C14.7929 12.0942 15.8229 10.6001 17.0938 10.6001C18.3646 10.6001 19.3946 11.2941 19.3946 12.1503C19.3946 13.0063 18.3646 13.7004 17.0938 13.7004C15.8229 13.7004 14.7929 13.8064 14.7929 12.9504Z" fill="#6E4990"/>
</g>
<defs>
<clipPath id="clip0">
<rect width="40" height="40" fill="white" transform="translate(0 0.708984)"/>
</clipPath>
</defs>
</svg>
