<svg width="71" height="72" viewBox="0 0 71 72" fill="none" xmlns="http://www.w3.org/2000/svg">
<path d="M48.4685 38.5691H44.9529C44.6995 38.5703 44.4471 38.5991 44.1999 38.6548C44.0667 38.601 43.9247 38.5723 43.781 38.5703H39.0935V31.047C39.0918 29.624 38.5258 28.2598 37.5196 27.2536C36.5134 26.2474 35.1492 25.6814 33.7262 25.6797H32.0623C31.7515 25.6797 31.4534 25.8032 31.2336 26.0229C31.0138 26.2427 30.8904 26.5408 30.8904 26.8516V31.0354C30.8905 32.6881 30.442 34.3099 29.5927 35.7276L27.7446 38.8007L22.4642 40.9129H15.656C15.3452 40.9129 15.0471 41.0364 14.8274 41.2561C14.6076 41.4759 14.4841 41.774 14.4841 42.0848V57.3191C14.4841 57.6299 14.6076 57.928 14.8274 58.1478C15.0471 58.3676 15.3452 58.491 15.656 58.491H22.6815C22.6836 58.491 22.6852 58.4922 22.6873 58.4922H27.2306L31.7784 59.6286C31.8711 59.6524 31.9665 59.6643 32.0623 59.6641H42.6091C42.7543 59.6623 42.8979 59.6334 43.0325 59.5787C43.2782 59.6336 43.5292 59.6618 43.781 59.6629H47.2966C48.2287 59.6619 49.1223 59.2912 49.7814 58.6321C50.4405 57.973 50.8112 57.0794 50.8123 56.1473C50.8085 55.5416 50.6463 54.9474 50.3419 54.4237C50.7762 54.1535 51.1456 53.791 51.4238 53.3618C51.7021 52.9327 51.8824 52.4475 51.9518 51.9407C52.0213 51.434 51.9783 50.9182 51.8259 50.43C51.6734 49.9418 51.4153 49.4932 51.0698 49.116C51.6578 48.4771 51.9841 47.6406 51.9841 46.7723C51.9841 45.904 51.6578 45.0674 51.0698 44.4285C51.5277 43.9261 51.8295 43.3012 51.9383 42.6301C52.047 41.9591 51.958 41.2709 51.6822 40.6495C51.4063 40.0282 50.9556 39.5006 50.3849 39.1312C49.8142 38.7617 49.1483 38.5664 48.4685 38.5691ZM21.5154 56.1473H16.8279V43.2566H21.5154V56.1473ZM42.3516 49.116C41.851 49.6566 41.5375 50.3439 41.4575 51.0764C41.3776 51.8088 41.5354 52.5476 41.9076 53.1834C41.4059 53.4986 40.9921 53.9357 40.7049 54.4539C40.4178 54.9722 40.2665 55.5548 40.2654 56.1473C40.2693 56.5478 40.3425 56.9447 40.4817 57.3203H32.2064L27.6586 56.1839C27.5659 56.1601 27.4705 56.1482 27.3748 56.1484H23.8591V42.879L28.9815 40.8306C28.9969 40.8244 29.0064 40.8111 29.0215 40.8043C29.1484 40.7505 29.2645 40.6744 29.3646 40.5796C29.3735 40.5709 29.3792 40.56 29.3877 40.5503C29.4498 40.4883 29.5047 40.4196 29.5514 40.3453L31.6033 36.9322C32.6697 35.15 33.2333 33.1123 33.2341 31.0354V28.0234H33.7262C34.5278 28.0243 35.2964 28.3431 35.8633 28.9099C36.4301 29.4768 36.7489 30.2454 36.7498 31.047V40.462C36.7549 42.0917 36.2689 43.6852 35.3552 45.0347C34.4415 46.3843 33.1424 47.4272 31.6273 48.0276C31.3387 48.143 31.1077 48.3683 30.9851 48.6539C30.8626 48.9396 30.8585 49.2623 30.9739 49.5509C31.0892 49.8396 31.3145 50.0706 31.6002 50.1931C31.8859 50.3157 32.2085 50.3197 32.4972 50.2044C34.3734 49.4579 35.9923 48.1826 37.1574 46.5333C38.3224 44.884 38.9832 42.9319 39.0597 40.9141H41.6524C41.4307 41.5069 41.3787 42.1498 41.5021 42.7706C41.6255 43.3914 41.9196 43.9656 42.3512 44.4285C41.7632 45.0674 41.4368 45.904 41.4368 46.7723C41.4368 47.6406 41.7632 48.4771 42.3512 49.116H42.3516ZM47.2966 57.3191H43.781C43.4702 57.3191 43.1721 57.1957 42.9524 56.9759C42.7326 56.7561 42.6091 56.4581 42.6091 56.1473C42.6091 55.8365 42.7326 55.5384 42.9524 55.3186C43.1721 55.0989 43.4702 54.9754 43.781 54.9754H47.2966C47.6074 54.9754 47.9055 55.0989 48.1253 55.3186C48.345 55.5384 48.4685 55.8365 48.4685 56.1473C48.4685 56.4581 48.345 56.7561 48.1253 56.9759C47.9055 57.1957 47.6074 57.3191 47.2966 57.3191ZM48.4685 52.6316H44.9529C44.6421 52.6316 44.344 52.5082 44.1242 52.2884C43.9045 52.0686 43.781 51.7706 43.781 51.4598C43.781 51.149 43.9045 50.8509 44.1242 50.6311C44.344 50.4114 44.6421 50.2879 44.9529 50.2879H48.4685C48.7793 50.2879 49.0774 50.4114 49.2971 50.6311C49.5169 50.8509 49.6404 51.149 49.6404 51.4598C49.6404 51.7706 49.5169 52.0686 49.2971 52.2884C49.0774 52.5082 48.7793 52.6316 48.4685 52.6316ZM48.4685 47.9441H44.9529C44.6421 47.9441 44.344 47.8207 44.1242 47.6009C43.9045 47.3811 43.781 47.0831 43.781 46.7723C43.781 46.4615 43.9045 46.1634 44.1242 45.9436C44.344 45.7239 44.6421 45.6004 44.9529 45.6004H48.4685C48.7793 45.6004 49.0774 45.7239 49.2971 45.9436C49.5169 46.1634 49.6404 46.4615 49.6404 46.7723C49.6404 47.0831 49.5169 47.3811 49.2971 47.6009C49.0774 47.8207 48.7793 47.9441 48.4685 47.9441ZM48.4685 43.2566H44.9529C44.6421 43.2566 44.344 43.1332 44.1242 42.9134C43.9045 42.6936 43.781 42.3956 43.781 42.0848C43.781 41.774 43.9045 41.4759 44.1242 41.2561C44.344 41.0364 44.6421 40.9129 44.9529 40.9129H48.4685C48.7793 40.9129 49.0774 41.0364 49.2971 41.2561C49.5169 41.4759 49.6404 41.774 49.6404 42.0848C49.6404 42.3956 49.5169 42.6936 49.2971 42.9134C49.0774 43.1332 48.7793 43.2566 48.4685 43.2566Z" fill="#6E4990"/>
<path d="M28.3429 15.1283L30.5815 16.7533L29.7266 19.3833C29.5734 19.8541 29.5733 20.3613 29.7262 20.8322C29.8791 21.3031 30.1773 21.7135 30.5778 22.0045C30.9784 22.2955 31.4608 22.4521 31.9559 22.452C32.451 22.4519 32.9333 22.295 33.3338 22.0039L35.571 20.3779L37.8095 22.0039C38.2075 22.3001 38.6904 22.4602 39.1866 22.4605C39.6828 22.4607 40.1658 22.301 40.5641 22.005C40.9688 21.7177 41.2701 21.3076 41.4235 20.8356C41.5769 20.3635 41.5741 19.8546 41.4156 19.3843L40.5607 16.7533L42.7996 15.1283C43.2 14.8373 43.498 14.4269 43.651 13.9561C43.8039 13.4853 43.8039 12.9782 43.6509 12.5074C43.498 12.0365 43.1999 11.6262 42.7995 11.3352C42.3991 11.0441 41.9168 10.8873 41.4218 10.8872L38.6557 10.8882L37.8008 8.25718V8.25615C37.6479 7.78524 37.3498 7.37484 36.9492 7.08382C36.5487 6.7928 36.0662 6.63612 35.5711 6.63623C35.076 6.63634 34.5936 6.79325 34.1932 7.08446C33.7927 7.37566 33.4948 7.78619 33.3421 8.25718L32.4871 10.8872H29.7209C29.2259 10.8875 28.7438 11.0444 28.3434 11.3354C27.9431 11.6265 27.6451 12.0368 27.4922 12.5075C27.3393 12.9782 27.3392 13.4853 27.492 13.956C27.6448 14.4268 27.9427 14.8372 28.3429 15.1283ZM32.4871 13.2309C32.9823 13.2318 33.4649 13.0754 33.8656 12.7844C34.2662 12.4934 34.5641 12.0827 34.7164 11.6115L35.566 8.96675C35.5683 8.97151 35.5702 8.9764 35.5718 8.9814L36.4266 11.6112C36.579 12.0824 36.8769 12.493 37.2775 12.7841C37.6782 13.0751 38.1608 13.2314 38.656 13.2306H41.422L39.1814 14.8582C38.7811 15.1487 38.4832 15.5587 38.3305 16.0291C38.1779 16.4996 38.1783 17.0064 38.3318 17.4766L39.1879 20.1088L36.9483 18.4813C36.548 18.1906 36.0659 18.034 35.5711 18.0342C35.0764 18.0345 34.5944 18.1914 34.1944 18.4825L31.957 20.1076L32.8107 17.4766C32.9644 17.0059 32.9649 16.4985 32.8119 16.0276C32.6589 15.5566 32.3604 15.1463 31.9593 14.8559L29.7209 13.2309H32.4871Z" fill="#6E4990"/>
<path d="M18.0066 28.5812L20.2438 30.2085C20.6443 30.4997 21.1266 30.6566 21.6218 30.6567C22.1169 30.6568 22.5993 30.5001 22.9999 30.2091C23.4005 29.9181 23.6986 29.5077 23.8515 29.0367C24.0044 28.5658 24.0042 28.0586 23.851 27.5877L22.9961 24.9567L25.2347 23.3308C25.6352 23.0398 25.9333 22.6296 26.0862 22.1588C26.2392 21.688 26.2392 21.1809 26.0862 20.7101C25.9332 20.2393 25.6351 19.8291 25.2346 19.5382C24.8341 19.2473 24.3517 19.0907 23.8567 19.0908L21.0908 19.0918L20.2359 16.4608V16.4598C20.083 15.9889 19.7849 15.5785 19.3843 15.2874C18.9837 14.9964 18.5013 14.8397 18.0062 14.8398C17.5111 14.84 17.0287 14.9969 16.6283 15.2881C16.2278 15.5793 15.9299 15.9898 15.7772 16.4608L14.9223 19.0908H12.1563C11.6612 19.0909 11.1789 19.2477 10.7785 19.5387C10.378 19.8297 10.0799 20.2399 9.92693 20.7107C9.77393 21.1815 9.77387 21.6887 9.92675 22.1595C10.0796 22.6303 10.3776 23.0407 10.778 23.3318L13.0164 24.9567L12.1615 27.5867C12.0029 28.0573 12 28.5664 12.1534 29.0387C12.3068 29.5109 12.6082 29.9212 13.0131 30.2088C13.4113 30.5047 13.8944 30.6644 14.3906 30.6642C14.8868 30.664 15.3697 30.5039 15.7677 30.2076L18.0066 28.5812ZM14.3948 23.0587L12.1563 21.4344H14.9223C15.4175 21.4352 15.9002 21.2788 16.3008 20.9878C16.7014 20.6968 16.9993 20.2861 17.1517 19.815L18.0013 17.1702C18.0013 17.1702 18.0035 17.1749 18.007 17.1849L18.8619 19.8147C19.0141 20.2858 19.3119 20.6965 19.7124 20.9875C20.1129 21.2786 20.5954 21.4351 21.0905 21.4344H23.8564L21.618 23.0604C21.2169 23.3506 20.9184 23.7607 20.7654 24.2315C20.6125 24.7023 20.613 25.2096 20.7669 25.6801L21.6218 28.3123L19.3832 26.6848C18.983 26.394 18.5008 26.2375 18.0061 26.2377C17.5113 26.2379 17.0293 26.3948 16.6293 26.686L14.3919 28.3111L15.2458 25.6801C15.3991 25.2094 15.3994 24.7022 15.2465 24.2313C15.0936 23.7605 14.7955 23.3502 14.3948 23.0593V23.0587Z" fill="#6E4990"/>
<path d="M55.3923 16.4603V16.4593C55.2394 15.9884 54.9413 15.578 54.5407 15.2869C54.1401 14.9959 53.6577 14.8392 53.1626 14.8394C52.6674 14.8395 52.1851 14.9964 51.7846 15.2876C51.3842 15.5788 51.0863 15.9893 50.9336 16.4603L50.0787 19.0903H47.3126C46.8176 19.0904 46.3353 19.2473 45.9349 19.5383C45.5345 19.8294 45.2364 20.2397 45.0835 20.7105C44.9305 21.1813 44.9305 21.6884 45.0834 22.1592C45.2364 22.6301 45.5344 23.0404 45.9348 23.3314L48.1732 24.9564L47.3184 27.5864C47.1597 28.0569 47.1569 28.566 47.3102 29.0383C47.4636 29.5106 47.765 29.9209 48.1699 30.2085C48.5682 30.5044 49.0512 30.6641 49.5474 30.6639C50.0436 30.6637 50.5265 30.5036 50.9245 30.2073L53.1629 28.5813L55.4002 30.2086C55.8006 30.4998 56.283 30.6567 56.7781 30.6568C57.2733 30.6569 57.7557 30.5002 58.1563 30.2092C58.5568 29.9182 58.8549 29.5078 59.0078 29.0368C59.1608 28.5659 59.1606 28.0587 59.0074 27.5878L58.1525 24.9568L60.3911 23.3309C60.7916 23.0399 61.0897 22.6297 61.2426 22.1589C61.3956 21.6881 61.3956 21.181 61.2426 20.7102C61.0896 20.2394 60.7915 19.8292 60.3909 19.5383C59.9904 19.2474 59.5081 19.0908 59.0131 19.0909L56.2472 19.0919L55.3923 16.4603ZM56.7747 23.0602C56.3736 23.3503 56.075 23.7604 55.922 24.2312C55.769 24.702 55.7694 25.2092 55.9233 25.6797L56.7782 28.3119L54.5396 26.6845C54.1393 26.3937 53.6572 26.2371 53.1625 26.2373C52.6677 26.2376 52.1857 26.3945 51.7857 26.6856L49.5483 28.3107L50.4022 25.6797C50.5555 25.209 50.5557 24.7018 50.4027 24.2309C50.2497 23.76 49.9515 23.3498 49.5508 23.059L47.3122 21.434H50.0783C50.5734 21.4349 51.0561 21.2785 51.4567 20.9875C51.8574 20.6965 52.1553 20.2858 52.3076 19.8147L53.1572 17.1699C53.1572 17.1699 53.1594 17.1746 53.1629 17.1845L54.0178 19.8144C54.17 20.2855 54.4679 20.6963 54.8685 20.9873C55.2691 21.2784 55.7517 21.4348 56.2469 21.434H59.0128L56.7747 23.0602Z" fill="#6E4990"/>
<path d="M35.5779 0.777344C16.1927 0.777344 0.421631 16.5484 0.421631 35.9336C0.421631 55.3187 16.1927 71.0898 35.5779 71.0898C54.963 71.0898 70.7341 55.3187 70.7341 35.9336C70.7341 16.5484 54.963 0.777344 35.5779 0.777344ZM35.5779 68.7461C17.4847 68.7461 2.76538 54.0268 2.76538 35.9336C2.76538 17.8404 17.4847 3.12109 35.5779 3.12109C53.671 3.12109 68.3904 17.8404 68.3904 35.9336C68.3904 54.0268 53.671 68.7461 35.5779 68.7461Z" fill="#6E4990"/>
<path d="M61.3592 35.9336C61.3632 40.68 60.0542 45.3351 57.5769 49.3838C57.4937 49.515 57.4374 49.6615 57.4113 49.8147C57.3852 49.9679 57.3898 50.1248 57.4249 50.2761C57.46 50.4275 57.5249 50.5704 57.6158 50.6965C57.7066 50.8226 57.8216 50.9294 57.9541 51.0106C58.0867 51.0918 58.234 51.1459 58.3876 51.1696C58.5412 51.1933 58.6979 51.1863 58.8488 51.1488C58.9996 51.1114 59.1415 51.0443 59.2662 50.9515C59.3909 50.8588 59.4958 50.7421 59.575 50.6084C62.2785 46.1913 63.7072 41.1123 63.7029 35.9336C63.7028 34.7075 63.6232 33.4827 63.4649 32.2669C63.4494 32.1107 63.4028 31.9593 63.3277 31.8215C63.2526 31.6837 63.1506 31.5624 63.0277 31.4648C62.9049 31.3672 62.7637 31.2953 62.6125 31.2532C62.4613 31.2112 62.3032 31.2 62.1476 31.2202C61.992 31.2405 61.842 31.2917 61.7066 31.371C61.5712 31.4503 61.4531 31.556 61.3593 31.6818C61.2655 31.8075 61.1979 31.9509 61.1605 32.1033C61.1232 32.2557 61.1168 32.414 61.1418 32.569C61.2863 33.6847 61.359 34.8085 61.3592 35.9336Z" fill="#6E4990"/>
<path d="M9.79668 35.9336C9.79689 34.8085 9.8695 33.6847 10.0141 32.569C10.0391 32.414 10.0327 32.2557 9.99531 32.1033C9.95795 31.9509 9.89036 31.8075 9.79655 31.6818C9.70274 31.556 9.58463 31.4503 9.44922 31.371C9.3138 31.2917 9.16384 31.2405 9.00824 31.2202C8.85263 31.2 8.69455 31.2112 8.54337 31.2532C8.39218 31.2953 8.25097 31.3672 8.12812 31.4648C8.00526 31.5624 7.90327 31.6837 7.82817 31.8215C7.75308 31.9593 7.70642 32.1107 7.69097 32.2669C7.5326 33.4827 7.45308 34.7075 7.45293 35.9336C7.44593 39.7156 8.20629 43.4597 9.68799 46.9394C9.81347 47.2196 10.0439 47.4394 10.3298 47.5514C10.6156 47.6635 10.934 47.6589 11.2165 47.5386C11.499 47.4184 11.723 47.192 11.8404 46.9083C11.9578 46.6246 11.9591 46.3062 11.8441 46.0215C10.4866 42.8319 9.79005 39.4 9.79668 35.9336Z" fill="#6E4990"/>
</svg>
