<svg width="26" height="26" viewBox="0 0 26 26" fill="none" xmlns="http://www.w3.org/2000/svg">
<g clip-path="url(#clip0)">
<path d="M24.8366 20.3679C25.0668 20.3679 25.2533 20.1813 25.2533 19.9513C25.2533 19.7211 25.0667 19.5346 24.8366 19.5346H24.42C24.42 19.3045 24.2335 19.118 24.0034 19.118C23.7732 19.118 23.5867 19.3045 23.5867 19.5346H16.9201C16.9201 19.3045 16.7336 19.118 16.5035 19.118C16.2734 19.118 16.0868 19.3045 16.0868 19.5346H15.6702C15.4401 19.5346 15.2536 19.7212 15.2536 19.9513C15.2536 20.1814 15.4401 20.3679 15.6702 20.3679H16.0868V21.6179H15.6702C15.4401 21.6179 15.2536 21.8044 15.2536 22.0345C15.2536 22.2647 15.4401 22.4512 15.6702 22.4512H16.0868V22.8678H15.6702C15.4401 22.8678 15.2536 23.0544 15.2536 23.2845C15.2536 23.5145 15.4401 23.7011 15.6702 23.7011H16.0868V24.9511H9.00357V21.5039C9.61991 21.8512 10.3153 22.0339 11.0228 22.0345C13.3889 22.0004 15.2812 20.058 15.2535 17.6917C15.2663 16.0466 14.3476 14.5356 12.881 13.79C13.3638 13.1327 13.6225 12.3375 13.619 11.522C13.6335 9.72205 12.3708 8.16407 10.6069 7.80539C11.0532 6.82113 10.9765 5.67867 10.4026 4.76296C9.82865 3.84721 8.83394 3.28008 7.75354 3.25268C7.74119 3.25268 7.72927 3.25444 7.71697 3.25459C7.49515 1.82068 6.25264 0.768157 4.80179 0.785052C3.35093 0.801946 2.13333 1.88318 1.94495 3.32187C0.889892 3.52412 0.161535 4.49549 0.263047 5.565C0.364559 6.63451 1.26269 7.45144 2.33703 7.45149H4.76575C4.80335 7.57131 4.84793 7.68884 4.89925 7.80343C3.13541 8.16334 1.87342 9.72191 1.88821 11.522C1.88465 12.3376 2.14334 13.1327 2.62609 13.79C1.15956 14.5357 0.240879 16.0466 0.253721 17.6917C0.22589 20.058 2.11824 22.0005 4.48441 22.0345C5.19187 22.034 5.88726 21.8513 6.50361 21.5039V24.9511H0.670413C0.44029 24.9511 0.25377 25.1377 0.25377 25.3678C0.25377 25.5979 0.44029 25.7844 0.670413 25.7844H24.8366C25.0668 25.7844 25.2533 25.5979 25.2533 25.3678C25.2533 25.1377 25.0667 24.9511 24.8366 24.9511H24.42V23.7012H24.8366C25.0668 23.7012 25.2533 23.5146 25.2533 23.2845C25.2533 23.0544 25.0667 22.8679 24.8366 22.8679H24.42V22.4512H24.8366C25.0668 22.4512 25.2533 22.2647 25.2533 22.0346C25.2533 21.8045 25.0667 21.6179 24.8366 21.6179H24.42V20.368H24.8366V20.3679ZM4.61258 6.47411C4.61258 6.5225 4.61805 6.57006 4.6202 6.61815H2.33703C1.64671 6.61815 1.08706 6.05854 1.08706 5.36818C1.08706 4.67781 1.64671 4.1182 2.33703 4.1182C2.44753 4.11825 2.55353 4.07435 2.63171 3.99618C2.70983 3.91805 2.75373 3.81205 2.75373 3.7015C2.75158 2.61412 3.58765 1.70877 4.67176 1.62449C5.75587 1.54017 6.72182 2.30544 6.88783 3.38007C5.52887 3.79516 4.60374 5.05324 4.61258 6.47411ZM8.17028 24.9512H7.33695V20.8914C7.48626 20.7524 7.62552 20.6029 7.75359 20.444C7.88166 20.6029 8.02092 20.7524 8.17023 20.8914V24.9512H8.17028ZM8.22087 19.6565L10.9648 16.9126C11.125 16.7494 11.1238 16.4877 10.9622 16.326C10.8006 16.1644 10.5388 16.1632 10.3757 16.3234L8.17028 18.5287V14.2905L10.1315 12.3293C10.2924 12.1663 10.2916 11.904 10.1296 11.742C9.96766 11.58 9.70531 11.5792 9.54228 11.7401L8.17023 13.1122V11.2014C8.17023 10.9713 7.98366 10.7848 7.75359 10.7848C7.52347 10.7848 7.33695 10.9713 7.33695 11.2014V13.1122L5.9649 11.7401C5.80191 11.5792 5.53957 11.58 5.37756 11.742C5.21555 11.9039 5.21477 12.1663 5.3757 12.3293L7.3369 14.2906V18.5288L5.13152 16.3234C4.96853 16.1625 4.70618 16.1633 4.54417 16.3253C4.38221 16.4872 4.38138 16.7496 4.54232 16.9126L7.28626 19.6565C6.67627 20.615 5.62038 21.197 4.48431 21.2012C2.57819 21.1677 1.05864 19.598 1.08696 17.6918C1.06928 16.1843 2.0221 14.8361 3.44898 14.3496C3.58691 14.3041 3.69121 14.1901 3.72422 14.0486C3.75722 13.9072 3.71411 13.7588 3.61055 13.657C3.0378 13.0947 2.71711 12.3246 2.7215 11.522C2.69425 9.93216 3.95161 8.61646 5.54108 8.57163C5.7131 8.58682 5.8775 8.49776 5.95875 8.34537C6.02979 8.20533 6.01588 8.03722 5.92276 7.91081C5.61393 7.49538 5.44675 6.99173 5.44587 6.47406C5.42555 5.17809 6.45766 4.11004 7.75354 4.08602C9.04947 4.11004 10.0816 5.17809 10.0612 6.47406C10.0603 6.99173 9.89315 7.49538 9.58432 7.91081C9.49311 8.03829 9.48168 8.20631 9.55483 8.34498C9.62846 8.48565 9.77426 8.57364 9.93304 8.57325C11.534 8.60205 12.8098 9.92093 12.7856 11.522C12.79 12.3246 12.4692 13.0947 11.8965 13.657C11.7929 13.7588 11.7499 13.9072 11.7829 14.0486C11.8159 14.1901 11.9202 14.3041 12.0581 14.3496C13.6584 14.9091 14.6339 16.5283 14.3806 18.2046C14.1273 19.8808 12.7169 21.1395 11.0228 21.2012C9.88671 21.197 8.83087 20.615 8.22087 19.6565ZM23.5867 24.9512H16.9201V23.7012H23.5867V24.9512ZM23.5867 22.8679H16.9201V22.4512H23.5867V22.8679ZM23.5867 21.6179H16.9201V20.3679H23.5867V21.6179Z" fill="#6E4990"/>
<path d="M18.1701 11.2014H23.17C24.2443 11.2013 25.1425 10.3844 25.244 9.31489C25.3455 8.24538 24.6172 7.27401 23.5621 7.07182C23.3714 5.62018 22.1342 4.53485 20.6701 4.53485C19.206 4.53485 17.9687 5.62018 17.7781 7.07182C16.7229 7.27401 15.9946 8.24538 16.0961 9.31489C16.1976 10.3844 17.0957 11.2013 18.1701 11.2014ZM18.1701 7.86809C18.2806 7.86814 18.3866 7.82425 18.4648 7.74607C18.5429 7.66795 18.5868 7.56195 18.5868 7.4514C18.5868 6.30084 19.5195 5.36809 20.6701 5.36809C21.8207 5.36809 22.7534 6.30079 22.7534 7.4514C22.7534 7.5619 22.7973 7.6679 22.8754 7.74607C22.9536 7.8242 23.0596 7.86809 23.1701 7.86809C23.8604 7.86809 24.4201 8.42775 24.4201 9.11807C24.4201 9.80839 23.8605 10.368 23.1701 10.368H18.1702C17.4799 10.368 16.9202 9.80844 16.9202 9.11807C16.9202 8.4277 17.4797 7.86809 18.1701 7.86809Z" fill="#6E4990"/>
</g>
<defs>
<clipPath id="clip0">
<rect width="25" height="25" fill="white" transform="translate(0.253418 0.784668)"/>
</clipPath>
</defs>
</svg>
