<svg width="23" height="24" viewBox="0 0 23 24" fill="none" xmlns="http://www.w3.org/2000/svg">
<g clip-path="url(#clip0)">
<path d="M0.766681 20.6506C0.308847 20.8125 0.00202758 21.2445 1.45478e-05 21.7301V22.8801C1.45478e-05 23.3035 0.343263 23.6468 0.766681 23.6468H22.2333C22.6568 23.6468 23 23.3035 23 22.8801V21.7301C22.998 21.2445 22.6912 20.8125 22.2333 20.6506V6.71073C22.3936 6.65628 22.539 6.56534 22.6581 6.44508C22.8781 6.23121 23.0016 5.93696 23 5.63012C23 4.99499 22.4851 4.48012 21.85 4.48012H17.6333V2.94678C17.6333 2.31166 17.1185 1.79678 16.4833 1.79678H11.4889C11.4322 1.73123 11.3739 1.66645 11.3103 1.60512C10.235 0.524117 8.66718 0.333983 7.81618 1.18077C7.6432 1.35608 7.5093 1.56602 7.42326 1.79678H6.51668C5.88155 1.79678 5.36668 2.31166 5.36668 2.94678V4.48012H1.15001C0.846382 4.47765 0.554758 4.59856 0.341948 4.81515C0.121915 5.02902 -0.0015423 5.32327 1.45478e-05 5.63012C0.00202758 6.11572 0.308847 6.54772 0.766681 6.70958V20.6506ZM0.766681 21.7301C0.766681 21.5184 0.938305 21.3468 1.15001 21.3468H7.28335V22.8801H0.766681V21.7301ZM8.05002 22.8801V21.3468H14.95V22.8801H8.05002ZM13.8 20.5801H9.20002V14.0634C9.20002 13.64 9.54326 13.2968 9.96668 13.2968H13.0333C13.4568 13.2968 13.8 13.64 13.8 14.0634V20.5801ZM15.7167 22.8801V21.3468H21.85C22.0617 21.3468 22.2333 21.5184 22.2333 21.7301V22.8801H15.7167ZM21.4667 20.5801H14.5667V14.0634C14.5667 13.2166 13.8802 12.5301 13.0333 12.5301H9.96668C9.11985 12.5301 8.43335 13.2166 8.43335 14.0634V20.5801H1.53335V6.78012H5.32145L4.25693 8.90877C4.25463 8.91337 4.25425 8.91835 4.25195 8.92295C4.24965 8.92755 4.24658 8.93982 4.24313 8.94825C4.22948 8.98516 4.22159 9.02394 4.21975 9.06325C4.21975 9.06862 4.21668 9.07283 4.21668 9.0782V10.2282C4.21385 10.8676 4.60974 11.4411 5.20864 11.665C5.80753 11.889 6.48257 11.7161 6.90001 11.2318C7.18747 11.568 7.60767 11.7616 8.05002 11.7616C8.49236 11.7616 8.91256 11.568 9.20002 11.2318C9.48747 11.568 9.90767 11.7616 10.35 11.7616C10.7924 11.7616 11.2126 11.568 11.5 11.2318C11.7875 11.568 12.2077 11.7616 12.65 11.7616C13.0924 11.7616 13.5126 11.568 13.8 11.2318C14.0875 11.568 14.5077 11.7616 14.95 11.7616C15.3924 11.7616 15.8126 11.568 16.1 11.2318C16.5172 11.7158 17.1918 11.8889 17.7905 11.6654C18.3892 11.4419 18.7854 10.8692 18.7833 10.2301V9.08012C18.7833 9.07475 18.7807 9.07053 18.7803 9.06517C18.7784 9.02586 18.7705 8.98707 18.7569 8.95017C18.7534 8.94173 18.7515 8.93292 18.7481 8.92487C18.7446 8.91682 18.7454 8.91528 18.7431 8.91068L17.6786 6.78012H21.4667V20.5801ZM17.0131 7.16345L17.7798 8.69678H5.22025L5.98692 7.16345H17.0131ZM15.7167 10.2301C15.7167 10.6535 15.3734 10.9968 14.95 10.9968C14.5266 10.9968 14.1833 10.6535 14.1833 10.2301V9.46345H15.7167V10.2301ZM13.4167 10.2301C13.4167 10.6535 13.0734 10.9968 12.65 10.9968C12.2266 10.9968 11.8833 10.6535 11.8833 10.2301V9.46345H13.4167V10.2301ZM11.1167 10.2301C11.1167 10.6535 10.7734 10.9968 10.35 10.9968C9.9266 10.9968 9.58335 10.6535 9.58335 10.2301V9.46345H11.1167V10.2301ZM8.81668 10.2301C8.81668 10.6535 8.47343 10.9968 8.05002 10.9968C7.6266 10.9968 7.28335 10.6535 7.28335 10.2301V9.46345H8.81668V10.2301ZM6.51668 10.2301C6.51668 10.6535 6.17343 10.9968 5.75001 10.9968C5.3266 10.9968 4.98335 10.6535 4.98335 10.2301V9.46345H6.51668V10.2301ZM16.4833 9.46345H18.0167V10.2301C18.0167 10.6535 17.6734 10.9968 17.25 10.9968C16.8266 10.9968 16.4833 10.6535 16.4833 10.2301V9.46345ZM21.85 5.24678C22.0617 5.24678 22.2333 5.41841 22.2333 5.63012C22.2336 5.7335 22.1912 5.8324 22.116 5.90343C22.0459 5.97452 21.9499 6.0142 21.85 6.01345H17.6333V5.24678H21.85ZM8.07876 2.26253C8.24471 2.3302 8.41927 2.37446 8.59741 2.39402C9.03159 2.41057 9.37958 2.75907 9.39552 3.19327C9.42279 3.5683 9.58642 3.92038 9.85551 4.18303C10.1175 4.45197 10.4689 4.61562 10.8434 4.64303C10.912 4.65262 10.9718 4.66335 11.0289 4.67638C10.4478 5.05972 9.49173 4.84505 8.78257 4.13282C8.25631 3.66194 7.99349 2.96353 8.07876 2.26253ZM10.7682 2.14753C11.2936 2.61815 11.5561 3.31567 11.4713 4.0159C11.3053 3.94823 11.1308 3.90398 10.9526 3.88442C10.5179 3.86781 10.1697 3.51843 10.1545 3.08363C10.1272 2.7086 9.96361 2.35652 9.69452 2.09387C9.43254 1.82493 9.08111 1.66128 8.70667 1.63387C8.63498 1.6239 8.57288 1.6124 8.515 1.5986C8.71511 1.46936 8.94918 1.40264 9.18736 1.40693C9.79009 1.43951 10.3567 1.70441 10.7682 2.146V2.14753ZM6.13335 2.94678C6.13335 2.73507 6.30497 2.56345 6.51668 2.56345H7.28948C7.32103 3.3629 7.66189 4.11884 8.24015 4.67178C8.79751 5.25586 9.56189 5.59779 10.3688 5.62398C10.8763 5.63703 11.3679 5.44638 11.7338 5.0946C12.3506 4.47552 12.4139 3.4754 11.9868 2.56192H16.4833C16.6951 2.56192 16.8667 2.73354 16.8667 2.94525V6.39525H6.13335V2.94678ZM0.883981 5.3568C0.954166 5.28571 1.05012 5.24603 1.15001 5.24678H5.36668V6.01345H1.15001C0.938305 6.01345 0.766681 5.84183 0.766681 5.63012C0.766424 5.52673 0.808869 5.42783 0.883981 5.3568Z" fill="#6E4990"/>
<path d="M6.13338 12.5297H3.83338C2.98655 12.5297 2.30005 13.2162 2.30005 14.063V17.513C2.30005 17.9364 2.6433 18.2797 3.06672 18.2797H6.90005C7.32347 18.2797 7.66671 17.9364 7.66671 17.513V14.063C7.66671 13.2162 6.98022 12.5297 6.13338 12.5297ZM3.83338 13.2963H6.13338C6.5568 13.2963 6.90005 13.6396 6.90005 14.063V15.9797H3.06672V14.063C3.06672 13.6396 3.40996 13.2963 3.83338 13.2963ZM3.06672 17.513V16.7463H6.90005V17.513H3.06672Z" fill="#6E4990"/>
<path d="M19.1667 12.5297H16.8667C16.0199 12.5297 15.3334 13.2162 15.3334 14.063V17.513C15.3334 17.9364 15.6766 18.2797 16.1 18.2797H19.9334C20.3568 18.2797 20.7 17.9364 20.7 17.513V14.063C20.7 13.2162 20.0135 12.5297 19.1667 12.5297ZM16.8667 13.2963H19.1667C19.5901 13.2963 19.9334 13.6396 19.9334 14.063V15.9797H16.1V14.063C16.1 13.6396 16.4433 13.2963 16.8667 13.2963ZM16.1 17.513V16.7463H19.9334V17.513H16.1Z" fill="#6E4990"/>
<path d="M12.6501 15.9797C12.4383 15.9797 12.2667 16.1513 12.2667 16.363V17.513C12.2667 17.7247 12.4383 17.8964 12.6501 17.8964C12.8618 17.8964 13.0334 17.7247 13.0334 17.513V16.363C13.0334 16.1513 12.8618 15.9797 12.6501 15.9797Z" fill="#6E4990"/>
<path d="M13.4167 4.09638H15.7167C15.9284 4.09638 16.1 3.92476 16.1 3.71305C16.1 3.50134 15.9284 3.32971 15.7167 3.32971H13.4167C13.2049 3.32971 13.0333 3.50134 13.0333 3.71305C13.0333 3.92476 13.2049 4.09638 13.4167 4.09638Z" fill="#6E4990"/>
<path d="M14.9501 4.86304H14.1834C13.9717 4.86304 13.8 5.03466 13.8 5.24637C13.8 5.45808 13.9717 5.62971 14.1834 5.62971H14.9501C15.1618 5.62971 15.3334 5.45808 15.3334 5.24637C15.3334 5.03466 15.1618 4.86304 14.9501 4.86304Z" fill="#6E4990"/>
</g>
<defs>
<clipPath id="clip0">
<rect width="23" height="23" fill="white" transform="translate(0 0.646362)"/>
</clipPath>
</defs>
</svg>
