<svg width="26" height="26" viewBox="0 0 26 26" fill="none" xmlns="http://www.w3.org/2000/svg">
<g clip-path="url(#clip0)">
<path d="M25.7482 16.2104L23.795 12.3042C23.7123 12.1387 23.5432 12.0343 23.3583 12.0343H21.097L14.3354 5.27271C14.1757 5.113 13.988 4.99805 13.788 4.92769V3.86705H16.2294C16.4084 3.86705 16.5731 3.7691 16.6585 3.61173C16.7439 3.45436 16.7364 3.2629 16.6389 3.11276L16.098 2.28015L16.6389 1.44748C16.7364 1.29734 16.7439 1.10588 16.6585 0.94851C16.5731 0.791235 16.4084 0.693237 16.2294 0.693237H13.2997C13.0301 0.693237 12.8114 0.91184 12.8114 1.18152V4.92764C12.6114 4.99805 12.4237 5.113 12.2639 5.27266L5.5024 12.0343H3.24118C3.05622 12.0343 2.88717 12.1387 2.80446 12.3042L0.851244 16.2104C0.77556 16.3618 0.783617 16.5415 0.87263 16.6855C0.961644 16.8294 1.11877 16.9171 1.28801 16.9171H1.77634V24.2283C1.77634 24.498 1.99499 24.7166 2.26462 24.7166H6.59732V25.205C6.59732 25.4746 6.81597 25.6932 7.08559 25.6932H19.5138C19.7834 25.6932 20.0021 25.4746 20.0021 25.205V24.7166H20.0021H24.3348C24.6044 24.7166 24.8231 24.498 24.8231 24.2283V16.9171H25.3114C25.4806 16.9171 25.6378 16.8295 25.7268 16.6855C25.8157 16.5415 25.8238 16.3617 25.7482 16.2104ZM13.788 1.6698H15.3299L15.1063 2.01418C15.0012 2.17595 15.0012 2.38439 15.1063 2.54616L15.3299 2.89049H13.788V1.6698ZM24.5214 15.9405H20.0021V14.6637C20.0686 14.6728 20.136 14.6778 20.2043 14.6778C20.5956 14.6778 20.9634 14.5254 21.24 14.2488C21.5167 13.9721 21.669 13.6043 21.669 13.213C21.669 13.1448 21.6641 13.0773 21.655 13.0108H23.0565L24.5214 15.9405ZM3.54298 13.0108H4.94444C4.93531 13.0773 4.93038 13.1448 4.93038 13.213C4.93038 13.6043 5.08272 13.9721 5.35938 14.2488C5.63604 14.5254 6.00386 14.6778 6.39512 14.6778C6.46338 14.6778 6.53086 14.6728 6.59732 14.6637V15.9405H2.07805L3.54298 13.0108ZM6.59732 16.9171V21.7869H2.75285V16.9171H6.59732ZM2.75285 23.7401V22.7635H6.59727V23.7401H2.75285ZM10.37 23.7401H16.2294V24.7167H10.37L10.37 23.7401ZM11.5907 18.8573H12.8114V22.7635H11.5907L11.5907 18.8573ZM15.0087 22.7635H13.788V18.8573H15.0087V22.7635C15.0087 22.7635 15.0087 22.7635 15.0087 22.7635ZM17.2059 24.7167V23.7401C17.2059 23.2016 16.7678 22.7635 16.2294 22.7635H15.9852V18.8573C15.9852 18.3188 15.5471 17.8807 15.0087 17.8807H11.5907C11.0522 17.8807 10.6141 18.3188 10.6141 18.8573V22.7635H10.37C9.83153 22.7635 9.39345 23.2016 9.39345 23.7401V24.7167H7.57382V14.1057L8.98412 12.6955C9.1748 12.5048 9.1748 12.1956 8.98412 12.0049C8.79345 11.8143 8.48437 11.8142 8.29355 12.0049L6.74023 13.5582C6.64805 13.6504 6.52549 13.7011 6.39507 13.7011C6.26465 13.7011 6.14204 13.6504 6.04991 13.5582C5.95767 13.466 5.90689 13.3434 5.90689 13.213C5.90689 13.0826 5.95767 12.96 6.04991 12.8678L12.9545 5.96324C13.0467 5.871 13.1693 5.82027 13.2997 5.82027C13.4301 5.82027 13.5527 5.87105 13.6448 5.96324L20.5494 12.8678C20.6416 12.96 20.6924 13.0826 20.6924 13.213C20.6924 13.3434 20.6416 13.4659 20.5494 13.5581C20.4572 13.6504 20.3347 13.7011 20.2042 13.7011C20.0738 13.7011 19.9512 13.6503 19.8591 13.5581L13.6449 7.34409C13.4542 7.15342 13.1451 7.15342 12.9544 7.34409L11.4009 8.89755C11.2102 9.08822 11.2102 9.3974 11.4009 9.58812C11.5916 9.7788 11.9007 9.7788 12.0915 9.58812L13.2997 8.37988L19.0255 14.1057V24.7167H17.2059ZM23.8465 23.7401H20.0021H20.0021V22.7635H20.0021H23.8465V23.7401ZM23.8465 16.9171V21.7869H20.0021H20.0021V16.9171H23.8465Z" fill="#6E4990"/>
<path d="M13.2998 13.5663C14.1749 13.5663 14.8867 12.8544 14.8867 11.9794C14.8867 11.1044 14.1749 10.3925 13.2998 10.3925C12.4248 10.3925 11.7129 11.1043 11.7129 11.9794C11.7129 12.8544 12.4248 13.5663 13.2998 13.5663ZM13.2998 11.3691C13.6364 11.3691 13.9102 11.6429 13.9102 11.9794C13.9102 12.316 13.6364 12.5898 13.2998 12.5898C12.9632 12.5898 12.6895 12.316 12.6895 11.9794C12.6895 11.6429 12.9633 11.3691 13.2998 11.3691Z" fill="#6E4990"/>
<path d="M15.4969 15.9405H11.1024C10.8328 15.9405 10.6141 16.1591 10.6141 16.4288C10.6141 16.6984 10.8328 16.9171 11.1024 16.9171H15.4969C15.7665 16.9171 15.9852 16.6984 15.9852 16.4288C15.9852 16.1591 15.7666 15.9405 15.4969 15.9405Z" fill="#6E4990"/>
<path d="M10.1926 10.3082H10.1923C9.92268 10.3082 9.70422 10.5268 9.70422 10.7964C9.70422 11.0661 9.92297 11.2847 10.1926 11.2847C10.4623 11.2847 10.6809 11.0661 10.6809 10.7964C10.6809 10.5268 10.4623 10.3082 10.1926 10.3082Z" fill="#6E4990"/>
</g>
<defs>
<clipPath id="clip0">
<rect width="25" height="25" fill="white" transform="translate(0.799683 0.693237)"/>
</clipPath>
</defs>
</svg>
