<svg width="71" height="71" viewBox="0 0 71 71" fill="none" xmlns="http://www.w3.org/2000/svg">
<g clip-path="url(#clip0)">
<path d="M2.05761 64.8382L13.4558 70.2844C14.9082 70.9778 16.6482 70.3626 17.3416 68.9101L18.7577 65.9455L19.7409 63.8876C20.0892 63.1546 20.1147 62.3087 19.8109 61.5562L20.7739 59.5465C20.7972 59.489 20.8379 59.4407 20.89 59.4076L26.3601 56.1528C26.8132 55.8837 27.1756 55.486 27.4013 55.0102L29.2352 51.1628C29.4045 50.8091 29.494 50.4222 29.4973 50.03L29.5672 29.9497C29.5716 29.0262 29.0442 28.1825 28.2114 27.7827C28.1712 27.762 28.1294 27.7452 28.0871 27.7311C27.7019 27.5694 27.2814 27.5136 26.8674 27.5678C26.6325 27.2021 26.301 26.908 25.9104 26.7182C25.8724 26.7002 25.8333 26.6851 25.7937 26.6715C24.975 26.3318 24.0363 26.4659 23.3457 27.0209L7.74911 39.7077C7.45504 39.9567 7.21685 40.2644 7.04974 40.6111L5.21099 44.4584C4.988 44.9337 4.91041 45.4643 4.98854 45.983L5.88269 52.2344C5.89842 52.3163 5.88649 52.4015 5.84796 52.4758L4.94514 54.3808C4.87894 54.3992 4.81221 54.4063 4.7471 54.4296C4.01735 54.6846 3.41945 55.2212 3.08685 55.9195L2.10319 57.9796L0.68438 60.9491C-0.00738922 62.4021 0.606793 64.141 2.05761 64.8382ZM15.2316 67.9053C15.1649 68.0453 15.0455 68.1532 14.899 68.2048C14.7536 68.2574 14.5936 68.2482 14.4552 68.1804L3.06352 62.7347C2.923 62.6685 2.81503 62.5486 2.76349 62.4015C2.7114 62.255 2.72062 62.0939 2.78844 61.9539L3.70375 60.0381L16.1523 65.9841L15.2316 67.9053ZM5.19146 56.9265C5.25765 56.7865 5.37756 56.6786 5.52351 56.627C5.58645 56.6058 5.6521 56.5945 5.71829 56.5945C5.80456 56.5945 5.8892 56.614 5.96679 56.6514L17.3623 62.0982C17.5033 62.1644 17.6118 62.2843 17.6634 62.4314C17.7155 62.5779 17.7068 62.7395 17.639 62.8795L17.1572 63.8854L4.71238 57.9351L5.19146 56.9265ZM18.4127 43.804C19.1912 43.8068 19.8738 44.3238 20.0881 45.072C20.3024 45.8197 19.9964 46.6194 19.3372 47.0334C18.6785 47.4479 17.8251 47.3763 17.244 46.8592C16.6629 46.3416 16.4936 45.5023 16.8284 44.7996C17.1197 44.1898 17.7366 43.8019 18.4127 43.804ZM7.32591 45.4366L9.15978 41.6045C9.18202 41.5605 9.21241 41.5209 9.24821 41.4878L24.8703 28.813C24.899 28.8276 24.9289 28.8412 24.9592 28.8526L18.857 41.5144C16.8501 41.2909 14.9815 42.5692 14.4623 44.5208C13.943 46.4718 14.9294 48.5097 16.7817 49.3132C18.634 50.1168 20.7956 49.4445 21.8661 47.7322C22.936 46.0199 22.5926 43.7823 21.0582 42.4693L27.1859 29.8878L27.251 29.9171L27.1659 50.0321C27.1626 50.0804 27.1501 50.1276 27.1284 50.171L25.2973 54.0064C25.2712 54.0661 25.2273 54.1155 25.1714 54.1486L19.7045 57.4002C19.2498 57.6698 18.8874 58.0708 18.665 58.5509L18.047 59.8401L7.35738 54.7313L7.94715 53.491C8.18425 53.0076 8.2716 52.4645 8.19781 51.9311L7.29824 45.6357C7.28739 45.5695 7.29715 45.5017 7.32591 45.441V45.4366Z" fill="#6E4990"/>
<path d="M63.3445 47.4V8.78951C63.3397 4.27971 59.6855 0.625543 55.1757 0.620117H18.9921C14.4807 0.620117 10.8232 4.27754 10.8232 8.78951C10.8232 13.3009 14.4807 16.9584 18.9921 16.9584H24.8306V22.7953C24.8306 23.4393 25.3526 23.9612 25.9966 23.9612C26.6406 23.9612 27.1626 23.4393 27.1626 22.7953V8.78951C27.1626 6.5905 26.2733 4.4848 24.6966 2.95206H55.1757C58.398 2.95586 61.0093 5.56722 61.0131 8.78951V47.3078H32.9984C32.3544 47.3078 31.8324 47.8297 31.8324 48.4737C31.8324 49.1178 32.3544 49.6397 32.9984 49.6397C35.7117 49.637 38.0686 51.5045 38.6872 54.1463C39.3057 56.788 38.0225 59.5073 35.5902 60.7097C33.1579 61.912 30.2183 61.2799 28.4951 59.184C28.232 58.8514 27.8093 58.6881 27.391 58.757C26.9727 58.8253 26.6249 59.1161 26.4822 59.5149C26.34 59.9143 26.4252 60.3597 26.7052 60.6776C28.2585 62.5522 30.5661 63.6384 33.0006 63.6411H62.1813C66.4838 63.6715 70.0707 60.3564 70.3789 56.0648C70.6865 51.7731 67.6096 47.9795 63.3473 47.3951L63.3445 47.4ZM24.8306 8.78951V14.6264H18.9921C15.7687 14.6259 13.1557 12.0123 13.1563 8.78842C13.1568 5.56505 15.7703 2.95206 18.9937 2.95206C22.2176 2.95206 24.8306 5.56559 24.8306 8.78951ZM62.1791 61.3141H38.7029C40.2791 59.7813 41.1689 57.6756 41.1689 55.4766C41.1689 53.2782 40.2791 51.1725 38.7029 49.6397H62.1791C65.4025 49.6397 68.016 52.2533 68.016 55.4766C68.016 58.7005 65.4025 61.3141 62.1791 61.3141Z" fill="#6E4990"/>
<path d="M57.5099 16.9579C58.1539 16.9579 58.6759 16.436 58.6759 15.7919C58.6759 15.1479 58.1539 14.626 57.5099 14.626H45.8388C45.1948 14.626 44.6729 15.1479 44.6729 15.7919C44.6729 16.436 45.1948 16.9579 45.8388 16.9579H57.5099Z" fill="#6E4990"/>
<path d="M31.8325 20.4609C31.8325 21.1044 32.3545 21.6263 32.9985 21.6263H57.5099C58.1539 21.6263 58.6759 21.1044 58.6759 20.4609C58.6759 19.8169 58.1539 19.2949 57.5099 19.2949H32.9985C32.3545 19.2949 31.8325 19.8169 31.8325 20.4609Z" fill="#6E4990"/>
<path d="M32.9985 26.2958H57.5099C58.1539 26.2958 58.6759 25.7739 58.6759 25.1298C58.6759 24.4858 58.1539 23.9639 57.5099 23.9639H32.9985C32.3545 23.9639 31.8325 24.4858 31.8325 25.1298C31.8325 25.7739 32.3545 26.2958 32.9985 26.2958Z" fill="#6E4990"/>
<path d="M32.9985 30.9637H57.5099C58.1539 30.9637 58.6759 30.4418 58.6759 29.7983C58.6759 29.1543 58.1539 28.6323 57.5099 28.6323H32.9985C32.3545 28.6323 31.8325 29.1543 31.8325 29.7983C31.8325 30.4418 32.3545 30.9637 32.9985 30.9637Z" fill="#6E4990"/>
<path d="M32.9985 35.6341H57.5099C58.1539 35.6341 58.6759 35.1122 58.6759 34.4682C58.6759 33.8247 58.1539 33.3027 57.5099 33.3027H32.9985C32.3545 33.3027 31.8325 33.8247 31.8325 34.4682C31.8325 35.1122 32.3545 35.6341 32.9985 35.6341Z" fill="#6E4990"/>
<path d="M32.9985 40.2977H45.8388C46.4829 40.2977 47.0048 39.7758 47.0048 39.1317C47.0048 38.4883 46.4829 37.9663 45.8388 37.9663H32.9985C32.3545 37.9663 31.8325 38.4883 31.8325 39.1317C31.8325 39.7758 32.3545 40.2977 32.9985 40.2977Z" fill="#6E4990"/>
</g>
<defs>
<clipPath id="clip0">
<rect width="70" height="70" fill="white" transform="translate(0.400146 0.484863)"/>
</clipPath>
</defs>
</svg>
