<svg width="71" height="71" viewBox="0 0 71 71" fill="none" xmlns="http://www.w3.org/2000/svg">
<g clip-path="url(#clip0)">
<path d="M23.8711 0.44873C14.2061 0.44873 6.37109 8.28377 6.37109 17.9487V30.7821C6.3762 35.2902 10.0296 38.9436 14.5378 38.9487H15.7044V36.6154H14.5378C11.3178 36.6116 8.70822 34.0021 8.70443 30.7821V17.9487C8.70443 9.57236 15.4947 2.78206 23.8711 2.78206C32.2475 2.78206 39.0378 9.57236 39.0378 17.9487V30.7821C39.034 34.0021 36.4244 36.6116 33.2044 36.6154H32.0378V38.9487H33.2044C37.7126 38.9436 41.366 35.2902 41.3711 30.7821V17.9487C41.3711 8.28377 33.536 0.44873 23.8711 0.44873Z" fill="#6E4990"/>
<path d="M10.1524 55.4324L11.0052 54.0895L9.03469 52.8389L8.18186 54.1829C5.60251 58.2475 5.79399 63.4812 8.66369 67.3464V70.4485H10.997V66.9485C10.9972 66.6836 10.907 66.4263 10.7415 66.2194C8.26119 63.1187 8.02451 58.7848 10.1524 55.4324Z" fill="#6E4990"/>
<path d="M64.7046 0.44873H49.5379C46.3179 0.452522 43.7084 3.06206 43.7046 6.28206V17.9487C43.7084 21.1687 46.3179 23.7783 49.5379 23.7821H51.8713V28.4487C51.8711 28.9205 52.1552 29.346 52.5911 29.5267C52.7327 29.5858 52.8845 29.6158 53.0379 29.6154C53.3474 29.6154 53.644 29.4923 53.8628 29.2736L59.3543 23.7821H64.7046C67.9246 23.7783 70.5341 21.1687 70.5379 17.9487V6.28206C70.5341 3.06206 67.9246 0.452522 64.7046 0.44873ZM68.2046 17.9487C68.2046 19.8817 66.6376 21.4487 64.7046 21.4487H58.8713C58.5618 21.4487 58.2652 21.5718 58.0464 21.7906L54.2046 25.6324V22.6154C54.2046 21.9711 53.6822 21.4487 53.0379 21.4487H49.5379C47.6049 21.4487 46.0379 19.8817 46.0379 17.9487V6.28206C46.0379 4.34904 47.6049 2.78206 49.5379 2.78206H64.7046C66.6376 2.78206 68.2046 4.34904 68.2046 6.28206V17.9487Z" fill="#6E4990"/>
<path d="M57.7045 6.28223H49.5378V8.61556H57.7045V6.28223Z" fill="#6E4990"/>
<path d="M64.7045 6.28223H60.0378V8.61556H64.7045V6.28223Z" fill="#6E4990"/>
<path d="M64.7045 10.9487H49.5378V13.2821H64.7045V10.9487Z" fill="#6E4990"/>
<path d="M57.7045 15.6152H49.5378V17.9486H57.7045V15.6152Z" fill="#6E4990"/>
<path d="M39.5604 54.1829L38.7076 52.8389L36.7371 54.0895L37.5899 55.4335C39.7179 58.7855 39.4812 63.1191 37.0007 66.2194C36.8352 66.4263 36.7451 66.6836 36.7452 66.9485V70.4485H39.0786V67.3464C41.9483 63.4812 42.1398 58.2475 39.5604 54.1829Z" fill="#6E4990"/>
<path d="M69.3712 40.1155H58.8712C54.4938 40.1206 50.899 43.5759 50.7208 47.9496L47.2045 54.2799V49.4488C47.1994 44.9406 43.546 41.2872 39.0378 41.2821H34.7737L34.7422 41.2576L34.7212 41.2821H32.0378C30.7491 41.2821 29.7045 40.2375 29.7045 38.9488V36.2036C33.3094 34.1223 35.5323 30.278 35.5378 26.1155V16.7821C35.5361 14.8491 35.0551 12.9467 34.1378 11.2451C33.844 10.7038 33.1799 10.484 32.6212 10.7435L12.8742 20.0348C12.4653 20.2273 12.2044 20.6387 12.2045 21.0906V26.1155C12.21 30.278 14.433 34.1223 18.0378 36.2036V38.9488C18.0378 40.2375 16.9932 41.2821 15.7045 41.2821H8.70451C4.19636 41.2872 0.542946 44.9406 0.537842 49.4488V70.4488H2.87118V49.4488C2.87497 46.2288 5.48451 43.6192 8.70451 43.6155H12.4168L22.9227 58.2945C23.1385 58.5962 23.485 58.7772 23.856 58.7821H23.8712C24.2384 58.7821 24.5842 58.6092 24.8045 58.3154L35.8878 43.6155H39.0378C42.2578 43.6192 44.8674 46.2288 44.8712 49.4488V58.7821C44.8718 59.4264 45.3946 59.9483 46.0389 59.9478C46.4621 59.9473 46.8519 59.7179 47.0575 59.3479L52.5572 49.4488H59.2457L47.8707 70.4488H50.5248L61.9045 49.4488H62.3712C66.8793 49.4437 70.5327 45.7903 70.5378 41.2821C70.5378 40.6378 70.0155 40.1155 69.3712 40.1155ZM14.5378 26.1155V21.8315L32.5523 13.3545C32.9833 14.4459 33.2045 15.6088 33.2045 16.7821V26.1155C33.2045 31.2701 29.0258 35.4488 23.8712 35.4488C18.7165 35.4488 14.5378 31.2701 14.5378 26.1155ZM23.8957 55.6461L20.2953 50.6155H27.6873L23.8957 55.6461ZM29.4525 48.2821H18.6212L15.281 43.6155H15.7045C18.2818 43.6155 20.3712 41.5261 20.3712 38.9488V37.2443C22.6494 37.9614 25.093 37.9614 27.3712 37.2443V38.9488C27.3712 41.5261 29.4605 43.6155 32.0378 43.6155H32.9712L29.4525 48.2821ZM62.3712 47.1155H53.1545C53.7123 44.4011 56.1 42.4519 58.8712 42.4488H68.0878C67.53 45.1632 65.1423 47.1124 62.3712 47.1155Z" fill="#6E4990"/>
</g>
<defs>
<clipPath id="clip0">
<rect width="70" height="70" fill="white" transform="translate(0.537842 0.44873)"/>
</clipPath>
</defs>
</svg>
