<svg width="31" height="27" viewBox="0 0 31 27" fill="none" xmlns="http://www.w3.org/2000/svg">
<path d="M30.5213 1.39188C30.1427 0.928787 29.5755 0.673828 28.9242 0.673828C28.5701 0.673828 28.195 0.748329 27.8095 0.895676L1.56859 10.9126C0.176013 11.4441 -0.0115404 12.2416 0.000521676 12.6697C0.0125837 13.0978 0.245074 13.8835 1.66556 14.3354C1.67408 14.338 1.68259 14.3406 1.6911 14.343L7.13417 15.9007L10.0778 24.3181C10.4792 25.4656 11.38 26.1785 12.4292 26.1785C13.0907 26.1785 13.7414 25.9013 14.3109 25.3772L17.6776 22.2772L22.5609 26.2092C22.5613 26.2097 22.562 26.2099 22.5625 26.2104L22.6089 26.2478C22.6131 26.2511 22.6176 26.2546 22.6219 26.258C23.1647 26.6789 23.7571 26.9013 24.3359 26.9015H24.3361C25.4669 26.9015 26.3673 26.0645 26.6296 24.7694L30.9291 3.53916C31.1017 2.68701 30.957 1.9245 30.5213 1.39188ZM8.95507 15.6048L19.4564 10.24L12.9176 17.188C12.8104 17.3018 12.7345 17.4411 12.6972 17.5927L11.4363 22.6999L8.95507 15.6048ZM13.0803 24.0409C13.0368 24.0809 12.993 24.1166 12.9493 24.1495L14.1191 19.4117L16.247 21.1252L13.0803 24.0409ZM29.1489 3.17848L24.8493 24.4089C24.8079 24.6121 24.6757 25.0849 24.3359 25.0849C24.1679 25.0849 23.957 24.9933 23.741 24.8271L18.2076 20.3717C18.2069 20.371 18.206 20.3702 18.205 20.3698L14.9126 17.7185L24.3685 7.67078C24.6712 7.34912 24.6987 6.85647 24.4335 6.50312C24.1682 6.14977 23.6874 6.03861 23.294 6.23965L7.74153 14.185L2.22444 12.6065L28.4573 2.59264C28.6789 2.50797 28.8336 2.49023 28.9242 2.49023C28.9798 2.49023 29.0786 2.49686 29.1153 2.54203C29.1635 2.60092 29.225 2.80172 29.1489 3.17848Z" fill="white"/>
</svg>
