<svg width="31" height="27" viewBox="0 0 31 27" fill="none" xmlns="http://www.w3.org/2000/svg">
<path d="M30.5213 1.07938C30.1427 0.616287 29.5755 0.361328 28.9242 0.361328C28.5701 0.361328 28.195 0.435829 27.8095 0.583176L1.56859 10.6001C0.176013 11.1316 -0.0115404 11.9291 0.000521676 12.3572C0.0125837 12.7853 0.245074 13.571 1.66556 14.0229C1.67408 14.0255 1.68259 14.0281 1.6911 14.0305L7.13417 15.5882L10.0778 24.0056C10.4792 25.1531 11.38 25.866 12.4292 25.866C13.0907 25.866 13.7414 25.5888 14.3109 25.0647L17.6776 21.9647L22.5609 25.8967C22.5613 25.8972 22.562 25.8974 22.5625 25.8979L22.6089 25.9353C22.6131 25.9386 22.6176 25.9421 22.6219 25.9455C23.1647 26.3664 23.7571 26.5888 24.3359 26.589H24.3361C25.4669 26.589 26.3673 25.752 26.6296 24.4569L30.9291 3.22666C31.1017 2.37451 30.957 1.612 30.5213 1.07938ZM8.95507 15.2923L19.4564 9.9275L12.9176 16.8755C12.8104 16.9893 12.7345 17.1286 12.6972 17.2802L11.4363 22.3874L8.95507 15.2923ZM13.0803 23.7284C13.0368 23.7684 12.993 23.8041 12.9493 23.837L14.1191 19.0992L16.247 20.8127L13.0803 23.7284ZM29.1489 2.86598L24.8493 24.0964C24.8079 24.2996 24.6757 24.7724 24.3359 24.7724C24.1679 24.7724 23.957 24.6808 23.741 24.5146L18.2076 20.0592C18.2069 20.0585 18.206 20.0577 18.205 20.0573L14.9126 17.406L24.3685 7.35828C24.6712 7.03662 24.6987 6.54397 24.4335 6.19062C24.1682 5.83727 23.6874 5.72611 23.294 5.92715L7.74153 13.8725L2.22444 12.294L28.4573 2.28014C28.6789 2.19547 28.8336 2.17773 28.9242 2.17773C28.9798 2.17773 29.0786 2.18436 29.1153 2.22953C29.1635 2.28842 29.225 2.48922 29.1489 2.86598Z" fill="#735193"/>
</svg>
