<svg width="26" height="26" viewBox="0 0 26 26" fill="none" xmlns="http://www.w3.org/2000/svg">
<g clip-path="url(#clip0)">
<path d="M7.50082 5.56281C7.54569 5.57566 7.59091 5.58181 7.63534 5.58181C7.84779 5.58181 8.04325 5.44206 8.10453 5.22766C8.33803 4.41116 9.09608 3.84094 9.94789 3.84094C10.2175 3.84094 10.4362 3.62229 10.4362 3.35266C10.4362 3.08303 10.2175 2.86438 9.94789 2.86438C8.66249 2.86438 7.51835 3.7258 7.16567 4.9591C7.09154 5.21838 7.24159 5.48864 7.50082 5.56281Z" fill="#6E4990"/>
<path d="M16.4973 8.4823C16.2277 8.4823 16.009 8.70095 16.009 8.97058C16.009 9.24021 16.2277 9.45886 16.4973 9.45886H16.5001C16.7697 9.45886 16.987 9.24021 16.987 8.97058C16.987 8.70095 16.767 8.4823 16.4973 8.4823Z" fill="#6E4990"/>
<path d="M24.3991 16.3779H23.8881V9.36134C24.4832 9.1402 24.9082 8.5672 24.9082 7.89679C24.9082 7.03473 24.2067 6.33331 23.3445 6.33331H16.8927C16.4617 5.35949 15.6889 4.58019 14.714 4.14327C14.0278 2.12062 12.1016 0.727844 9.948 0.727844C7.79375 0.727844 5.86802 2.12076 5.18315 4.14342C3.77285 4.77565 2.81021 6.10963 2.65527 7.64357C1.57842 8.34806 0.919922 9.55299 0.919922 10.8497C0.919922 12.0651 1.48164 13.1821 2.43926 13.9038C2.3501 14.482 2.51431 15.1127 2.91289 15.6861C3.09082 15.9422 3.30566 16.174 3.54946 16.3779H2.5376C1.64561 16.3779 0.919922 17.0594 0.919922 17.8971C0.919922 18.7347 1.64561 19.4162 2.5376 19.4162H7.48599C7.39868 21.5229 7.15103 23.7257 6.21465 24.8838C6.09634 25.03 6.07266 25.2313 6.15371 25.4011C6.23477 25.571 6.4062 25.679 6.59434 25.679H12.5957C12.7839 25.679 12.9553 25.5709 13.0363 25.4011C13.1174 25.2314 13.0937 25.03 12.9754 24.8838C12.039 23.7256 11.7914 21.5229 11.7041 19.4162H16.0451V25.1907C16.0451 25.4604 16.2637 25.679 16.5333 25.679H20.2884C20.558 25.679 20.7767 25.4604 20.7767 25.1907V19.4162H22.9115V25.1907C22.9115 25.4604 23.1302 25.679 23.3998 25.679C23.6694 25.679 23.8881 25.4604 23.8881 25.1907V19.4162H24.3991C25.2376 19.4162 25.9199 18.7347 25.9199 17.8971C25.9199 17.0594 25.2376 16.3779 24.3991 16.3779ZM3.45342 13.8635C3.53452 13.6453 3.45039 13.4002 3.25234 13.2779C2.40332 12.7535 1.89648 11.8458 1.89648 10.8497C1.89648 9.81627 2.4582 8.86095 3.36235 8.35641C3.51104 8.2735 3.60571 8.1191 3.61235 7.94899C3.66431 6.61398 4.50571 5.44171 5.75591 4.96261C5.89932 4.90763 6.0085 4.78844 6.05063 4.64073C6.54438 2.91188 8.14702 1.70441 9.948 1.70441C11.7485 1.70441 13.3517 2.91198 13.8467 4.64103C13.889 4.78859 13.9981 4.90773 14.1415 4.96266C14.8358 5.22858 15.4125 5.71256 15.7935 6.33336H9.65039C8.78818 6.33336 8.08672 7.03473 8.08672 7.89684C8.08672 8.56725 8.51177 9.14025 9.10679 9.36139V16.3779H6.33418C5.04312 16.3779 4.13457 15.7326 3.71484 15.1288C3.41177 14.6928 3.3165 14.2317 3.45342 13.8635ZM11.7127 24.7025H7.47739C8.18037 23.2922 8.38604 21.3065 8.46328 19.4162H10.7268C10.804 21.3065 11.0097 23.2922 11.7127 24.7025ZM16.0451 18.4397H2.5376C2.19009 18.4397 1.89648 18.1912 1.89648 17.8971C1.89648 17.6029 2.19009 17.3545 2.5376 17.3545H16.0451V18.4397ZM19.8001 24.7025H17.0217V23.5882H19.8001V24.7025ZM19.8001 22.6116H17.0217V21.4987H19.8001V22.6116ZM19.8001 20.5222H17.0217V19.4163H19.8001V20.5222ZM19.8001 18.4397H17.0217V17.3544H19.8001V18.4397ZM19.8001 16.3779H17.0217V12.4892H19.8001V16.3779ZM20.2884 11.5127H16.5334C16.2638 11.5127 16.0451 11.7313 16.0451 12.0009V16.3779H10.0833V9.4589H14.305C14.5747 9.4589 14.7933 9.24025 14.7933 8.97062C14.7933 8.70099 14.5747 8.48234 14.305 8.48234H9.65039C9.32666 8.48234 9.06328 8.21969 9.06328 7.89684C9.06328 7.57321 9.32671 7.30992 9.65039 7.30992H23.3444C23.6682 7.30992 23.9316 7.57321 23.9316 7.89684C23.9316 8.21969 23.6682 8.48234 23.3444 8.48234H18.6898C18.4202 8.48234 18.2015 8.70099 18.2015 8.97062C18.2015 9.24025 18.4202 9.4589 18.6898 9.4589H22.9116V16.3779H20.7767V12.0009C20.7767 11.7313 20.5581 11.5127 20.2884 11.5127ZM24.3991 18.4397H20.7767V17.3544H24.3991C24.6992 17.3544 24.9434 17.5978 24.9434 17.897C24.9434 18.1963 24.6992 18.4397 24.3991 18.4397Z" fill="#6E4990"/>
<path d="M14.2718 11.5127H11.8579C11.5883 11.5127 11.3696 11.7313 11.3696 12.001V14.4156C11.3696 14.6852 11.5883 14.9039 11.8579 14.9039H14.2718C14.5414 14.9039 14.7601 14.6852 14.7601 14.4156V12.001C14.7601 11.7313 14.5415 11.5127 14.2718 11.5127ZM13.7835 13.9273H12.3462V12.4893H13.7835V13.9273Z" fill="#6E4990"/>
</g>
<defs>
<clipPath id="clip0">
<rect width="25" height="25" fill="white" transform="translate(0.919922 0.70343)"/>
</clipPath>
</defs>
</svg>
