<svg width="30" height="30" viewBox="0 0 30 30" fill="none" xmlns="http://www.w3.org/2000/svg">
<g clip-path="url(#clip0)">
<path d="M28.6944 10.611C28.6946 7.88735 27.6271 5.31994 25.6887 3.38155C23.7503 1.44315 21.1829 0.37561 18.4591 0.37561H12.3945C12.3943 0.37561 12.3943 0.37561 12.3943 0.37561C9.67092 0.37561 7.10329 1.44315 5.16512 3.38132C3.22672 5.31994 2.15918 7.88735 2.15918 10.611V15.3781C2.15918 17.4875 2.80258 19.5164 4.01991 21.2459C5.09387 22.7717 6.53821 23.9636 8.22216 24.7191V27.4574C8.22216 28.8731 9.01491 29.3756 9.69371 29.3756C10.1787 29.3756 10.6637 29.1362 11.1358 28.6643L14.1865 25.6137L18.4593 25.6134C21.1829 25.6134 23.7503 24.5459 25.6887 22.6077C27.6271 20.6693 28.6946 18.1017 28.6946 15.3781L28.6944 10.611ZM18.4593 23.9142L13.8347 23.9144C13.6092 23.9144 13.3933 24.0038 13.234 24.1631L9.93443 27.4627C9.93023 27.4671 9.9258 27.4713 9.92138 27.4755C9.92138 27.4695 9.92138 27.4633 9.92138 27.4574V24.1521C9.92138 23.7996 9.70389 23.4839 9.37466 23.3582C6.07535 22.0993 3.85862 18.8922 3.85862 15.3781V10.611C3.85862 8.34114 4.74938 6.2003 6.36674 4.58273C7.98409 2.96559 10.1247 2.07483 12.3945 2.07483H18.4591C20.7289 2.07483 22.8697 2.96559 24.4871 4.58295C26.1047 6.20052 26.9954 8.34136 26.9952 10.611L26.9954 15.3781C26.9952 20.085 23.166 23.9142 18.4593 23.9142Z" fill="#6E4990"/>
<path d="M17.6862 14.2716C17.3546 13.9397 16.8167 13.9397 16.4848 14.2716L15.7985 14.9577L13.1391 12.2985L13.8254 11.6124C13.9847 11.453 14.0743 11.2369 14.0743 11.0114C14.0743 10.7862 13.9847 10.57 13.8254 10.4107L10.6079 7.19328C10.4486 7.03397 10.2327 6.94437 10.0072 6.94437C9.78201 6.94437 9.56584 7.03397 9.40654 7.19328L7.15419 9.44563C5.9362 10.6636 5.9362 12.6458 7.15441 13.8645L14.2325 20.943C14.821 21.5313 15.6058 21.8552 16.4419 21.8552C17.2783 21.8552 18.063 21.5313 18.6516 20.943L20.9039 18.6909C21.0632 18.5314 21.1528 18.3154 21.1528 18.09C21.1528 17.8647 21.0632 17.6486 20.9039 17.4893L17.6862 14.2716ZM17.45 19.7412C17.1825 20.0087 16.8245 20.156 16.4419 20.156C16.0594 20.156 15.7014 20.0087 15.4339 19.7412L8.35603 12.6629C7.80025 12.1071 7.80003 11.2026 8.35581 10.647L10.0072 8.99538L12.0231 11.0114L11.3367 11.6975C11.1774 11.8568 11.0878 12.073 11.0878 12.2982C11.0878 12.5237 11.1774 12.7396 11.3367 12.8992L15.1976 16.76C15.5295 17.0917 16.0673 17.0919 16.3992 16.76L17.0855 16.0739L19.1014 18.0897L17.45 19.7412Z" fill="#6E4990"/>
<path d="M15.6331 4.13403C15.1638 4.13403 14.7834 4.51437 14.7834 4.98364C14.7834 5.4527 15.1638 5.83325 15.6331 5.83325C17.5774 5.83325 19.4056 6.59038 20.7805 7.96546C22.1556 9.34032 22.9127 11.1683 22.9127 13.1129C22.9127 13.582 23.293 13.9625 23.7623 13.9625C24.2314 13.9625 24.6119 13.5822 24.6119 13.1129C24.6119 10.7145 23.678 8.45974 21.9821 6.76384C20.2862 5.06794 18.0314 4.13403 15.6331 4.13403Z" fill="#6E4990"/>
<path d="M19.2727 13.1127C19.2727 13.5817 19.6532 13.9623 20.1223 13.9623C20.5915 13.9623 20.9719 13.5817 20.9719 13.1127C20.9719 10.1689 18.5768 7.77408 15.6331 7.77408C15.1638 7.77408 14.7834 8.15441 14.7834 8.62369C14.7834 9.09296 15.1638 9.4733 15.6331 9.4733C17.64 9.4733 19.2727 11.1059 19.2727 13.1127Z" fill="#6E4990"/>
</g>
<defs>
<clipPath id="clip0">
<rect width="29" height="29" fill="white" transform="translate(0.913086 0.37561)"/>
</clipPath>
</defs>
</svg>
