<svg width="35" height="23" viewBox="0 0 35 23" fill="none" xmlns="http://www.w3.org/2000/svg">
<path d="M17.7115 22.5625C22.7748 22.5625 20.9694 19.2655 21.3602 18.3175C21.3544 17.6095 21.3485 16.9285 21.3719 16.5145C21.6927 16.6075 22.4496 17.002 24.0129 18.565C26.4265 21.07 27.0433 22.5625 28.9931 22.5625H32.5821C33.7196 22.5625 34.3117 22.078 34.6077 21.6715C34.8935 21.2785 35.1735 20.5885 34.8673 19.5145C34.0667 16.9285 29.3971 12.463 29.1069 11.992C29.1506 11.905 29.2206 11.7895 29.2571 11.7295H29.2542C30.1758 10.477 33.6933 5.056 34.211 2.887C34.2125 2.884 34.2139 2.8795 34.2139 2.875C34.4939 1.885 34.2373 1.243 33.9719 0.88C33.5723 0.337 32.9364 0.0625 32.0775 0.0625H28.4885C27.2869 0.0625 26.3754 0.685 25.9146 1.8205C25.1431 3.838 22.976 7.987 21.3515 9.4555C21.3019 7.375 21.3354 5.7865 21.3617 4.606C21.4142 2.3035 21.5833 0.0625 19.2602 0.0625H13.6194C12.164 0.0625 10.7712 1.6975 12.2792 3.6385C13.5975 5.3395 12.7531 6.2875 13.0375 11.0065C11.9292 9.784 9.9575 6.4825 8.56333 2.263C8.1725 1.1215 7.58041 0.0639999 5.91354 0.0639999H2.32458C0.869166 0.0639999 0 0.88 0 2.2465C0 5.3155 6.60479 22.5625 17.7115 22.5625ZM5.91354 2.314C6.23 2.314 6.26208 2.314 6.49687 2.9995C7.92458 7.324 11.1271 13.723 13.4662 13.723C15.2235 13.723 15.2235 11.8705 15.2235 11.173L15.2221 5.62C15.1258 3.7825 14.4754 2.8675 14.0481 2.3125L19.164 2.3185C19.1669 2.344 19.1348 8.461 19.1785 9.943C19.1785 12.0475 20.8031 13.2535 23.3392 10.6135C26.0152 7.507 27.8658 2.863 27.9402 2.674C28.0496 2.404 28.1444 2.3125 28.4885 2.3125H32.0775H32.0921C32.0906 2.317 32.0906 2.3215 32.0892 2.326C31.761 3.901 28.5221 8.92 27.4385 10.4785C27.421 10.5025 27.405 10.528 27.389 10.5535C26.9121 11.3545 26.5242 12.2395 27.4546 13.4845H27.456C27.5406 13.5895 27.7608 13.8355 28.0817 14.1775C29.0792 15.2365 32.5004 18.8575 32.8037 20.2975C32.6025 20.3305 32.3837 20.3065 28.9931 20.314C28.2712 20.314 27.7069 19.204 25.5529 16.969C23.6162 15.031 22.3592 14.239 21.2144 14.239C18.9919 14.239 19.1537 16.0945 19.1742 18.3385C19.1815 20.7715 19.1669 20.002 19.1829 20.155C19.0531 20.2075 18.6812 20.3125 17.7115 20.3125C8.45833 20.3125 2.4325 5.206 2.20062 2.3185C2.28083 2.311 3.38479 2.3155 5.91354 2.314Z" fill="white"/>
</svg>
