<svg width="35" height="24" viewBox="0 0 35 24" fill="none" xmlns="http://www.w3.org/2000/svg">
<path d="M17.7115 23.25C22.7748 23.25 20.9694 19.953 21.3602 19.005C21.3544 18.297 21.3485 17.616 21.3719 17.202C21.6927 17.295 22.4496 17.6895 24.0129 19.2525C26.4265 21.7575 27.0433 23.25 28.9931 23.25H32.5821C33.7196 23.25 34.3117 22.7655 34.6077 22.359C34.8935 21.966 35.1735 21.276 34.8673 20.202C34.0667 17.616 29.3971 13.1505 29.1069 12.6795C29.1506 12.5925 29.2206 12.477 29.2571 12.417H29.2542C30.1758 11.1645 33.6933 5.7435 34.211 3.5745C34.2125 3.5715 34.2139 3.567 34.2139 3.5625C34.4939 2.5725 34.2373 1.9305 33.9719 1.5675C33.5723 1.0245 32.9364 0.75 32.0775 0.75H28.4885C27.2869 0.75 26.3754 1.3725 25.9146 2.508C25.1431 4.5255 22.976 8.6745 21.3515 10.143C21.3019 8.0625 21.3354 6.474 21.3617 5.2935C21.4142 2.991 21.5833 0.75 19.2602 0.75H13.6194C12.164 0.75 10.7712 2.385 12.2792 4.326C13.5975 6.027 12.7531 6.975 13.0375 11.694C11.9292 10.4715 9.9575 7.17 8.56333 2.9505C8.1725 1.809 7.58041 0.7515 5.91354 0.7515H2.32458C0.869166 0.7515 0 1.5675 0 2.934C0 6.003 6.60479 23.25 17.7115 23.25ZM5.91354 3.0015C6.23 3.0015 6.26208 3.0015 6.49687 3.687C7.92458 8.0115 11.1271 14.4105 13.4662 14.4105C15.2235 14.4105 15.2235 12.558 15.2235 11.8605L15.2221 6.3075C15.1258 4.47 14.4754 3.555 14.0481 3L19.164 3.006C19.1669 3.0315 19.1348 9.1485 19.1785 10.6305C19.1785 12.735 20.8031 13.941 23.3392 11.301C26.0152 8.1945 27.8658 3.5505 27.9402 3.3615C28.0496 3.0915 28.1444 3 28.4885 3H32.0775H32.0921C32.0906 3.0045 32.0906 3.009 32.0892 3.0135C31.761 4.5885 28.5221 9.6075 27.4385 11.166C27.421 11.19 27.405 11.2155 27.389 11.241C26.9121 12.042 26.5242 12.927 27.4546 14.172H27.456C27.5406 14.277 27.7608 14.523 28.0817 14.865C29.0792 15.924 32.5004 19.545 32.8037 20.985C32.6025 21.018 32.3837 20.994 28.9931 21.0015C28.2712 21.0015 27.7069 19.8915 25.5529 17.6565C23.6162 15.7185 22.3592 14.9265 21.2144 14.9265C18.9919 14.9265 19.1537 16.782 19.1742 19.026C19.1815 21.459 19.1669 20.6895 19.1829 20.8425C19.0531 20.895 18.6812 21 17.7115 21C8.45833 21 2.4325 5.8935 2.20062 3.006C2.28083 2.9985 3.38479 3.003 5.91354 3.0015Z" fill="#735193"/>
</svg>
