<svg width="29" height="30" viewBox="0 0 29 30" fill="none" xmlns="http://www.w3.org/2000/svg">
<g clip-path="url(#clip0)">
<path d="M24.1075 4.14664C21.5342 1.49029 18.1135 0.0275879 14.4741 0.0275879C14.4739 0.0275879 14.473 0.0275879 14.4728 0.0275879C12.6728 0.0278091 10.9186 0.387566 9.25943 1.09712C7.60003 1.80668 6.11338 2.83263 4.84042 4.14664C2.26729 6.80278 0.8503 10.3344 0.8503 14.0908C0.8503 16.331 1.37393 18.5573 2.3661 20.5408L0.0761102 27.2939C-0.0852865 27.7702 0.0289558 28.2879 0.374898 28.6448C0.616886 28.8948 0.935392 29.0276 1.2629 29.0276C1.40329 29.0276 1.54518 29.0033 1.68365 28.9532L8.22568 26.5896C10.1472 27.6138 12.3039 28.1543 14.4741 28.1543C18.1131 28.1543 21.5342 26.6914 24.1075 24.0352C26.6806 21.3791 28.0978 17.8475 28.0978 14.0911C28.0978 10.3344 26.6809 6.80278 24.1075 4.14664ZM22.9424 22.8325C20.6805 25.1676 17.6729 26.4533 14.4741 26.4533C12.5172 26.4533 10.5731 25.9537 8.85198 25.0081C8.5399 24.8368 8.17103 24.8074 7.83987 24.9271L1.89627 27.0744L3.97664 20.939C4.0926 20.5968 4.06387 20.216 3.89798 19.8941C2.98211 18.1179 2.49792 16.1111 2.49792 14.0908C2.49792 10.7889 3.74365 7.68425 6.00557 5.34937C8.26726 3.01472 11.2744 1.7288 14.473 1.72836H14.4741C17.6731 1.72836 20.6805 3.01427 22.9424 5.34937C25.2045 7.68425 26.4502 10.7886 26.4502 14.0908C26.4502 17.393 25.2045 20.4976 22.9424 22.8325Z" fill="white"/>
<path d="M19.5373 15.3471C18.9105 14.7002 17.8907 14.7002 17.264 15.3471L16.5785 16.0547C14.8765 15.0974 13.4991 13.6756 12.5715 11.9186L13.2569 11.2111C13.8839 10.5641 13.8839 9.51139 13.2569 8.86445L11.4098 6.95769C10.783 6.31075 9.76321 6.31075 9.13649 6.95769L7.65884 8.48301C6.81242 9.35673 6.77019 10.8588 7.53988 12.7127C8.20819 14.3223 9.4312 16.0914 10.9837 17.694C12.5361 19.2965 14.25 20.559 15.8093 21.2488C16.6625 21.6263 17.4387 21.8146 18.1093 21.8146C18.8503 21.8146 19.4625 21.5847 19.9068 21.126L21.3844 19.6005V19.6007C21.6881 19.2872 21.8553 18.8706 21.8553 18.4274C21.8553 17.984 21.6881 17.5674 21.3844 17.2541L19.5373 15.3471ZM18.7416 19.9233C18.5001 20.1727 17.7572 20.2601 16.4585 19.6857C15.0872 19.079 13.5566 17.9444 12.1488 16.4912C10.741 15.0381 9.64211 13.4583 9.0544 12.0427C8.49776 10.7022 8.58242 9.93509 8.82398 9.68574L10.2733 8.18963L12.0635 10.0378L11.2055 10.9236C10.8175 11.3241 10.7239 11.9314 10.9727 12.435C12.1008 14.7183 13.8663 16.5408 16.0783 17.7053C16.5663 17.9621 17.1547 17.8657 17.5426 17.465L18.4006 16.5793L20.191 18.4274L18.7416 19.9233Z" fill="white"/>
</g>
<defs>
<clipPath id="clip0">
<rect width="28.0938" height="29" fill="white" transform="translate(0.00415039 0.0275879)"/>
</clipPath>
</defs>
</svg>
